<?xml version='1.0' encoding='UTF-8' standalone='no'?>
<!-- Created with Fritzing (http://www.fritzing.org/) -->
<svg xmlns="http://www.w3.org/2000/svg" version="1.2" xmlns:svg="http://www.w3.org/2000/svg" x="0in" y="0in" width="2.7409in" baseProfile="tiny" height="2.18737in"  viewBox="0 0 197.345 157.491">
 <g partID="57360">
  <g id="board" >
   <rect stroke-width="0.5" id="boardoutline" fill-opacity="0.5" x="0.288" fill="none" stroke="black" width="196.769" y="0.288" height="156.915" />
  </g>
 </g>
 <g partID="854136210">
  <g transform="translate(144.8,104)">
   <g transform="matrix(-1,0,0,-1,0,0)">
    <g id="copper0"  gorn="0.3.0">
     <g id="copper1"  gorn="0.3.0.0">
      <path stroke-width="1.44" d="m9,7.2a1.8,1.8,0,0,1,-3.6,0,1.8,1.8,0,1,1,3.6,0z" style="stroke-linecap:round;stroke-linejoin:round;stroke-miterlimit:4;stroke-dasharray:none;stroke-dashoffset:0;display:inline" id="path15" stroke="black" fill="none" stroke-opacity="1"  gorn="0.3.0.0.0"/>
      <path stroke-width="1.44" d="m16.2,7.2a1.8,1.8,0,0,1,-3.6,0,1.8,1.8,0,1,1,3.6,0z" style="stroke-linecap:round;stroke-linejoin:round;stroke-miterlimit:4;stroke-dasharray:none;stroke-dashoffset:0;display:inline" id="path17" stroke="black" fill="none" stroke-opacity="1"  gorn="0.3.0.0.1"/>
      <path stroke-width="1.44" d="m23.4,7.2a1.8,1.8,0,0,1,-3.6,0,1.8,1.8,0,1,1,3.6,0z" style="stroke-linecap:round;stroke-linejoin:round;stroke-miterlimit:4;stroke-dasharray:none;stroke-dashoffset:0;display:inline" id="path19" stroke="black" fill="none" stroke-opacity="1"  gorn="0.3.0.0.2"/>
      <path stroke-width="1.44" d="m30.6,7.2a1.8,1.8,0,0,1,-3.6,0,1.8,1.8,0,1,1,3.6,0z" style="stroke-linecap:round;stroke-linejoin:round;stroke-miterlimit:4;stroke-dasharray:none;stroke-dashoffset:0;display:inline" id="path21" stroke="black" fill="none" stroke-opacity="1"  gorn="0.3.0.0.3"/>
      <path stroke-width="1.44" d="m37.8,7.2a1.8,1.8,0,0,1,-3.6,0,1.8,1.8,0,1,1,3.6,0z" style="stroke-linecap:round;stroke-linejoin:round;stroke-miterlimit:4;stroke-dasharray:none;stroke-dashoffset:0;display:inline" id="path23" stroke="black" fill="none" stroke-opacity="1"  gorn="0.3.0.0.4"/>
      <path stroke-width="1.44" d="m9,7.2a1.8,1.8,0,0,1,-3.6,0,1.8,1.8,0,1,1,3.6,0z" style="stroke-linecap:round;stroke-linejoin:round;stroke-miterlimit:4;stroke-dasharray:none;stroke-dashoffset:0;display:inline" id="connector1pad" stroke="black" fill="none" stroke-opacity="1"  gorn="0.3.0.0.5"/>
      <path stroke-width="1.44" d="m16.2,7.2a1.8,1.8,0,0,1,-3.6,0,1.8,1.8,0,1,1,3.6,0z" style="stroke-linecap:round;stroke-linejoin:round;stroke-miterlimit:4;stroke-dasharray:none;stroke-dashoffset:0;display:inline" id="connector2pad" stroke="black" fill="none" stroke-opacity="1"  gorn="0.3.0.0.6"/>
      <path stroke-width="1.44" d="m23.4,7.2a1.8,1.8,0,0,1,-3.6,0,1.8,1.8,0,1,1,3.6,0z" style="stroke-linecap:round;stroke-linejoin:round;stroke-miterlimit:4;stroke-dasharray:none;stroke-dashoffset:0;display:inline" id="connector3pad" stroke="black" fill="none" stroke-opacity="1"  gorn="0.3.0.0.7"/>
      <path stroke-width="1.44" d="m30.6,7.2a1.8,1.8,0,0,1,-3.6,0,1.8,1.8,0,1,1,3.6,0z" style="stroke-linecap:round;stroke-linejoin:round;stroke-miterlimit:4;stroke-dasharray:none;stroke-dashoffset:0;display:inline" id="connector4pad" stroke="black" fill="none" stroke-opacity="1"  gorn="0.3.0.0.8"/>
      <path stroke-width="1.44" d="m37.8,7.2a1.8,1.8,0,0,1,-3.6,0,1.8,1.8,0,1,1,3.6,0z" style="stroke-linecap:round;stroke-linejoin:round;stroke-miterlimit:4;stroke-dasharray:none;stroke-dashoffset:0;display:inline" id="connector5pad" stroke="black" fill="none" stroke-opacity="1"  gorn="0.3.0.0.9"/>
     </g>
    </g>
   </g>
  </g>
 </g>
 <g partID="854137260">
  <g transform="translate(144.8,89.6)">
   <g id="copper0"  gorn="0.3.0">
    <g id="copper1"  gorn="0.3.0.0">
     <path stroke-width="1.44" d="m9,7.2a1.8,1.8,0,0,1,-3.6,0,1.8,1.8,0,1,1,3.6,0z" style="stroke-linecap:round;stroke-linejoin:round;stroke-miterlimit:4;stroke-dasharray:none;stroke-dashoffset:0;display:inline" id="path15" stroke="black" fill="none" stroke-opacity="1"  gorn="0.3.0.0.0"/>
     <path stroke-width="1.44" d="m16.2,7.2a1.8,1.8,0,0,1,-3.6,0,1.8,1.8,0,1,1,3.6,0z" style="stroke-linecap:round;stroke-linejoin:round;stroke-miterlimit:4;stroke-dasharray:none;stroke-dashoffset:0;display:inline" id="path17" stroke="black" fill="none" stroke-opacity="1"  gorn="0.3.0.0.1"/>
     <path stroke-width="1.44" d="m23.4,7.2a1.8,1.8,0,0,1,-3.6,0,1.8,1.8,0,1,1,3.6,0z" style="stroke-linecap:round;stroke-linejoin:round;stroke-miterlimit:4;stroke-dasharray:none;stroke-dashoffset:0;display:inline" id="path19" stroke="black" fill="none" stroke-opacity="1"  gorn="0.3.0.0.2"/>
     <path stroke-width="1.44" d="m30.6,7.2a1.8,1.8,0,0,1,-3.6,0,1.8,1.8,0,1,1,3.6,0z" style="stroke-linecap:round;stroke-linejoin:round;stroke-miterlimit:4;stroke-dasharray:none;stroke-dashoffset:0;display:inline" id="path21" stroke="black" fill="none" stroke-opacity="1"  gorn="0.3.0.0.3"/>
     <path stroke-width="1.44" d="m37.8,7.2a1.8,1.8,0,0,1,-3.6,0,1.8,1.8,0,1,1,3.6,0z" style="stroke-linecap:round;stroke-linejoin:round;stroke-miterlimit:4;stroke-dasharray:none;stroke-dashoffset:0;display:inline" id="path23" stroke="black" fill="none" stroke-opacity="1"  gorn="0.3.0.0.4"/>
     <path stroke-width="1.44" d="m9,7.2a1.8,1.8,0,0,1,-3.6,0,1.8,1.8,0,1,1,3.6,0z" style="stroke-linecap:round;stroke-linejoin:round;stroke-miterlimit:4;stroke-dasharray:none;stroke-dashoffset:0;display:inline" id="connector1pad" stroke="black" fill="none" stroke-opacity="1"  gorn="0.3.0.0.5"/>
     <path stroke-width="1.44" d="m16.2,7.2a1.8,1.8,0,0,1,-3.6,0,1.8,1.8,0,1,1,3.6,0z" style="stroke-linecap:round;stroke-linejoin:round;stroke-miterlimit:4;stroke-dasharray:none;stroke-dashoffset:0;display:inline" id="connector2pad" stroke="black" fill="none" stroke-opacity="1"  gorn="0.3.0.0.6"/>
     <path stroke-width="1.44" d="m23.4,7.2a1.8,1.8,0,0,1,-3.6,0,1.8,1.8,0,1,1,3.6,0z" style="stroke-linecap:round;stroke-linejoin:round;stroke-miterlimit:4;stroke-dasharray:none;stroke-dashoffset:0;display:inline" id="connector3pad" stroke="black" fill="none" stroke-opacity="1"  gorn="0.3.0.0.7"/>
     <path stroke-width="1.44" d="m30.6,7.2a1.8,1.8,0,0,1,-3.6,0,1.8,1.8,0,1,1,3.6,0z" style="stroke-linecap:round;stroke-linejoin:round;stroke-miterlimit:4;stroke-dasharray:none;stroke-dashoffset:0;display:inline" id="connector4pad" stroke="black" fill="none" stroke-opacity="1"  gorn="0.3.0.0.8"/>
     <path stroke-width="1.44" d="m37.8,7.2a1.8,1.8,0,0,1,-3.6,0,1.8,1.8,0,1,1,3.6,0z" style="stroke-linecap:round;stroke-linejoin:round;stroke-miterlimit:4;stroke-dasharray:none;stroke-dashoffset:0;display:inline" id="connector5pad" stroke="black" fill="none" stroke-opacity="1"  gorn="0.3.0.0.9"/>
    </g>
   </g>
  </g>
 </g>
 <g partID="57850">
  <g transform="translate(0.6148,3.2)">
   <g id="copper0" >
    <circle stroke-width="1" id="connector1pad" fill="none" stroke="black" cx="151.384" cy="144"  r="1.883"/>
    <circle stroke-width="1" id="connector2pad" fill="none" stroke="black" cx="158.583" cy="144"  r="1.883"/>
    <circle stroke-width="1" id="connector3pad" fill="none" stroke="black" cx="165.786" cy="144"  r="1.883"/>
    <circle stroke-width="1" id="connector4pad" fill="none" stroke="black" cx="172.985" cy="144"  r="1.883"/>
    <circle stroke-width="1" id="connector5pad" fill="none" stroke="black" cx="180.185" cy="144"  r="1.883"/>
    <circle stroke-width="1" id="connector51pad" fill="none" stroke="black" cx="118.263" cy="7.2"  r="1.884"/>
    <circle stroke-width="1" id="connector52pad" fill="none" stroke="black" cx="111.065" cy="7.2"  r="1.884"/>
    <circle stroke-width="1" id="connector53pad" fill="none" stroke="black" cx="103.864" cy="7.2"  r="1.884"/>
    <circle stroke-width="1" id="connector54pad" fill="none" stroke="black" cx="96.664" cy="7.2"  r="1.884"/>
    <circle stroke-width="1" id="connector55pad" fill="none" stroke="black" cx="89.464" cy="7.2"  r="1.884"/>
    <circle stroke-width="1" id="connector56pad" fill="none" stroke="black" cx="82.264" cy="7.2"  r="1.884"/>
    <circle stroke-width="1" id="connector57pad" fill="none" stroke="black" cx="75.064" cy="7.2"  r="1.884"/>
    <circle stroke-width="1" id="connector58pad" fill="none" stroke="black" cx="67.864" cy="7.2"  r="1.884"/>
    <circle stroke-width="1" id="connector59pad" fill="none" stroke="black" cx="60.664" cy="7.2"  r="1.884"/>
    <circle stroke-width="1" id="connector60pad" fill="none" stroke="black" cx="53.463" cy="7.2"  r="1.884"/>
    <circle stroke-width="1" id="connector61pad" fill="none" stroke="black" cx="180.185" cy="7.2"  r="1.884"/>
    <circle stroke-width="1" id="connector62pad" fill="none" stroke="black" cx="172.985" cy="7.2"  r="1.884"/>
    <circle stroke-width="1" id="connector63pad" fill="none" stroke="black" cx="165.786" cy="7.2"  r="1.884"/>
    <circle stroke-width="1" id="connector64pad" fill="none" stroke="black" cx="158.583" cy="7.2"  r="1.884"/>
    <circle stroke-width="1" id="connector65pad" fill="none" stroke="black" cx="151.384" cy="7.2"  r="1.884"/>
    <circle stroke-width="1" id="connector66pad" fill="none" stroke="black" cx="144.185" cy="7.2"  r="1.884"/>
    <circle stroke-width="1" id="connector67pad" fill="none" stroke="black" cx="136.985" cy="7.2"  r="1.884"/>
    <circle stroke-width="1" id="connector68pad" fill="none" stroke="black" cx="129.784" cy="7.2"  r="1.884"/>
    <circle stroke-width="1" id="connector84pad" fill="none" stroke="black" cx="86.584" cy="144"  r="1.883"/>
    <circle stroke-width="1" id="connector91pin" fill="none" stroke="black" cx="79.384" cy="144"  r="1.883"/>
    <circle stroke-width="1" id="connector85pad" fill="none" stroke="black" cx="93.784" cy="144"  r="1.883"/>
    <circle stroke-width="1" id="connector86pad" fill="none" stroke="black" cx="100.985" cy="144"  r="1.883"/>
    <circle stroke-width="1" id="connector87pad" fill="none" stroke="black" cx="108.185" cy="144"  r="1.883"/>
    <circle stroke-width="1" id="connector88pad" fill="none" stroke="black" cx="115.384" cy="144"  r="1.883"/>
    <circle stroke-width="1" id="connector89pad" fill="none" stroke="black" cx="122.583" cy="144"  r="1.883"/>
    <circle stroke-width="1" id="connector90pad" fill="none" stroke="black" cx="129.784" cy="144"  r="1.883"/>
    <circle stroke-width="1" id="connector0pad" fill="none" stroke="black" cx="144.185" cy="144"  r="1.883"/>
   </g>
  </g>
 </g>
 <g partID="58060">
  <g transform="translate(74.96,91.76)">
   <g id="copper0" >
    <rect stroke-width="1.44" id="square" x="2.952" fill="none" width="4.176" stroke="black" y="2.952" height="4.176" />
    <circle stroke-width="1.44" id="connector0pin" fill="none" stroke="black" cx="5.04" cy="5.04"  r="2.088"/>
    <circle stroke-width="1.44" id="connector1pin" fill="none" stroke="black" cx="5.04" cy="12.24"  r="2.088"/>
   </g>
  </g>
 </g>
 <g partID="854100550">
  <g transform="translate(85.04,73.04)">
   <g transform="matrix(-1,0,0,-1,0,0)">
    <g id="copper0" >
     <rect stroke-width="1.44" id="square" x="2.952" fill="none" width="4.176" stroke="black" y="2.952" height="4.176" />
     <circle stroke-width="1.44" id="connector0pin" fill="none" stroke="black" cx="5.04" cy="5.04"  r="2.088"/>
     <circle stroke-width="1.44" id="connector1pin" fill="none" stroke="black" cx="5.04" cy="12.24"  r="2.088"/>
     <circle stroke-width="1.44" id="connector2pin" fill="none" stroke="black" cx="5.04" cy="19.44"  r="2.088"/>
    </g>
   </g>
  </g>
 </g>
 <g partID="854102750">
  <g transform="translate(40.7128,35.888)">
   <g transform="matrix(-1,0,0,-1,0,0)">
    <g id="copper0"  gorn="0.2.9">
     <rect stroke-width="1.23181" x="1.84772" width="4.13019" y="1.836" fill="none" stroke="black" height="4.104" />
     <circle stroke-width="1.23181" id="connector6pin" fill="none" stroke="black" cx="3.91281" cy="3.888" connectorname="1"  r="2.0651" gorn="0.2.9.1"/>
     <circle stroke-width="1.23181" id="connector7pin" fill="none" stroke="black" cx="3.91281" cy="11.088" connectorname="2"  r="2.0651" gorn="0.2.9.2"/>
     <circle stroke-width="1.23181" id="connector4pin" fill="none" stroke="black" cx="11.1588" cy="3.888" connectorname="3"  r="2.0651" gorn="0.2.9.3"/>
     <circle stroke-width="1.23181" id="connector5pin" fill="none" stroke="black" cx="11.1588" cy="11.088" connectorname="4"  r="2.0651" gorn="0.2.9.4"/>
     <circle stroke-width="1.23181" id="connector2pin" fill="none" stroke="black" cx="18.4047" cy="3.888" connectorname="5"  r="2.0651" gorn="0.2.9.5"/>
     <circle stroke-width="1.23181" id="connector3pin" fill="none" stroke="black" cx="18.4047" cy="11.088" connectorname="6"  r="2.0651" gorn="0.2.9.6"/>
     <rect stroke-width="1.23181" x="23.5856" width="4.13019" y="1.836" fill="none" stroke="black" height="4.104" />
     <circle stroke-width="1.23181" id="connector0pin" fill="none" stroke="black" cx="25.6507" cy="3.888" connectorname="7"  r="2.0651" gorn="0.2.9.8"/>
     <circle stroke-width="1.23181" id="connector1pin" fill="none" stroke="black" cx="25.6507" cy="11.088" connectorname="8"  r="2.0651" gorn="0.2.9.9"/>
    </g>
   </g>
  </g>
 </g>
 <g partID="854104890">
  <g transform="translate(170.72,49.28)">
   <g transform="matrix(0,1,-1,0,0,0)">
    <g id="copper0" >
     <rect stroke-width="1.44" id="square" x="2.34" fill="none" stroke="black" width="3.96" y="2.34" height="3.96" />
     <circle stroke-width="1.44" id="connector0pin" fill="none" stroke="black" cx="4.32" cy="4.32"  r="1.98"/>
     <circle stroke-width="1.44" id="connector17pin" fill="none" stroke="black" cx="25.92" cy="4.32"  r="1.98"/>
     <circle stroke-width="1.44" id="connector1pin" fill="none" stroke="black" cx="4.32" cy="11.52"  r="1.98"/>
     <circle stroke-width="1.44" id="connector16pin" fill="none" stroke="black" cx="25.92" cy="11.52"  r="1.98"/>
     <circle stroke-width="1.44" id="connector2pin" fill="none" stroke="black" cx="4.32" cy="18.72"  r="1.98"/>
     <circle stroke-width="1.44" id="connector15pin" fill="none" stroke="black" cx="25.92" cy="18.72"  r="1.98"/>
     <circle stroke-width="1.44" id="connector3pin" fill="none" stroke="black" cx="4.32" cy="25.92"  r="1.98"/>
     <circle stroke-width="1.44" id="connector14pin" fill="none" stroke="black" cx="25.92" cy="25.92"  r="1.98"/>
     <circle stroke-width="1.44" id="connector4pin" fill="none" stroke="black" cx="4.32" cy="33.12"  r="1.98"/>
     <circle stroke-width="1.44" id="connector13pin" fill="none" stroke="black" cx="25.92" cy="33.12"  r="1.98"/>
     <circle stroke-width="1.44" id="connector5pin" fill="none" stroke="black" cx="4.32" cy="40.32"  r="1.98"/>
     <circle stroke-width="1.44" id="connector12pin" fill="none" stroke="black" cx="25.92" cy="40.32"  r="1.98"/>
     <circle stroke-width="1.44" id="connector6pin" fill="none" stroke="black" cx="4.32" cy="47.52"  r="1.98"/>
     <circle stroke-width="1.44" id="connector11pin" fill="none" stroke="black" cx="25.92" cy="47.52"  r="1.98"/>
     <circle stroke-width="1.44" id="connector7pin" fill="none" stroke="black" cx="4.32" cy="54.72"  r="1.98"/>
     <circle stroke-width="1.44" id="connector10pin" fill="none" stroke="black" cx="25.92" cy="54.72"  r="1.98"/>
     <circle stroke-width="1.44" id="connector8pin" fill="none" stroke="black" cx="4.32" cy="61.92"  r="1.98"/>
     <circle stroke-width="1.44" id="connector9pin" fill="none" stroke="black" cx="25.92" cy="61.92"  r="1.98"/>
    </g>
   </g>
  </g>
 </g>
 <g partID="854128400">
  <g transform="translate(11.5955,88.8346)">
   <g transform="matrix(1,0,0,1,0,0)">
    <g id="copper0" >
     <circle stroke-width="1.25575" id="connector1pad" stroke="black" fill="none" cx="18.0045" cy="35.0079" connectorname="2"  r="2.61213"/>
     <circle stroke-width="1.25575" id="connector0pad" stroke="black" fill="none" cx="18.0045" cy="15.1654" connectorname="1"  r="2.61213"/>
    </g>
   </g>
  </g>
 </g>
 <g partID="854317630">
  <g transform="translate(126.084,20.4844)">
   <g id="copper0" >
    <circle stroke-width="1.44" id="connector0pin" fill="none" stroke="black" cx="4.31559" cy="4.31559"  r="1.99559"/>
   </g>
  </g>
 </g>
 <g partID="854317660">
  <g transform="translate(133.284,27.6844)">
   <g id="copper0" >
    <circle stroke-width="1.44" id="connector0pin" fill="none" stroke="black" cx="4.31559" cy="4.31559"  r="1.99559"/>
   </g>
  </g>
 </g>
 <g partID="854317830">
  <g transform="translate(10.8844,56.4844)">
   <g id="copper0" >
    <circle stroke-width="1.44" id="connector0pin" fill="none" stroke="black" cx="4.31559" cy="4.31559"  r="1.99559"/>
   </g>
  </g>
 </g>
 <g partID="854318410">
  <g transform="translate(46.8844,20.4844)">
   <g id="copper0" >
    <circle stroke-width="1.44" id="connector0pin" fill="none" stroke="black" cx="4.31559" cy="4.31559"  r="1.99559"/>
   </g>
  </g>
 </g>
 <g partID="854319950">
  <line stroke-width="1.728" stroke="black" y1="39.2471" stroke-linecap="round" y2="26.8756" x1="51.2471" x2="51.2068"/>
 </g>
 <g partID="854320000">
  <line stroke-width="1.728" stroke="black" y1="32.0882" stroke-linecap="round" y2="39.2471" x1="130.494" x2="51.2471"/>
 </g>
 <g partID="854319900">
  <line stroke-width="1.728" stroke="black" y1="32.0257" stroke-linecap="round" y2="32.0882" x1="135.525" x2="130.494"/>
 </g>
 <g partID="854319800">
  <line stroke-width="1.728" stroke="black" y1="39.2705" stroke-linecap="round" y2="60.4407" x1="137.677" x2="17.2442"/>
 </g>
 <g partID="854324910">
  <line stroke-width="1.728" stroke="black" y1="32.0882" stroke-linecap="round" y2="39.2705" x1="144.859" x2="137.677"/>
 </g>
 <g partID="854319750">
  <line stroke-width="1.728" stroke="black" y1="25.7342" stroke-linecap="round" y2="32.0882" x1="132.253" x2="144.859"/>
 </g>
</svg>
