<?xml version='1.0' encoding='UTF-8' standalone='no'?>
<!-- Created with Fritzing (http://www.fritzing.org/) -->
<svg xmlns="http://www.w3.org/2000/svg" version="1.2" xmlns:svg="http://www.w3.org/2000/svg" x="0in" y="0in" width="2.7409in" baseProfile="tiny" height="2.18737in"  viewBox="0 0 197.345 157.491">
 <g transform="matrix(-1, 0, 0, 1, 197.345, 0)">
  <g partID="57360">
   <g id="board" >
    <rect stroke-width="0.5" id="boardoutline" fill-opacity="0.5" x="0.288" fill="none" stroke="black" width="196.769" y="0.288" height="156.915" />
   </g>
  </g>
  <g partID="854136211">
   <g transform="translate(144.8,104)">
    <g transform="matrix(-1,0,0,-1,0,0)">
     <g id="copper1"  gorn="0.3.0.0">
      <path stroke-width="1.44" d="m9,7.2a1.8,1.8,0,0,1,-3.6,0,1.8,1.8,0,1,1,3.6,0z" style="stroke-linecap:round;stroke-linejoin:round;stroke-miterlimit:4;stroke-dasharray:none;stroke-dashoffset:0;display:inline" id="path15" stroke="black" fill="none" stroke-opacity="1"  gorn="0.3.0.0.0"/>
      <path stroke-width="1.44" d="m16.2,7.2a1.8,1.8,0,0,1,-3.6,0,1.8,1.8,0,1,1,3.6,0z" style="stroke-linecap:round;stroke-linejoin:round;stroke-miterlimit:4;stroke-dasharray:none;stroke-dashoffset:0;display:inline" id="path17" stroke="black" fill="none" stroke-opacity="1"  gorn="0.3.0.0.1"/>
      <path stroke-width="1.44" d="m23.4,7.2a1.8,1.8,0,0,1,-3.6,0,1.8,1.8,0,1,1,3.6,0z" style="stroke-linecap:round;stroke-linejoin:round;stroke-miterlimit:4;stroke-dasharray:none;stroke-dashoffset:0;display:inline" id="path19" stroke="black" fill="none" stroke-opacity="1"  gorn="0.3.0.0.2"/>
      <path stroke-width="1.44" d="m30.6,7.2a1.8,1.8,0,0,1,-3.6,0,1.8,1.8,0,1,1,3.6,0z" style="stroke-linecap:round;stroke-linejoin:round;stroke-miterlimit:4;stroke-dasharray:none;stroke-dashoffset:0;display:inline" id="path21" stroke="black" fill="none" stroke-opacity="1"  gorn="0.3.0.0.3"/>
      <path stroke-width="1.44" d="m37.8,7.2a1.8,1.8,0,0,1,-3.6,0,1.8,1.8,0,1,1,3.6,0z" style="stroke-linecap:round;stroke-linejoin:round;stroke-miterlimit:4;stroke-dasharray:none;stroke-dashoffset:0;display:inline" id="path23" stroke="black" fill="none" stroke-opacity="1"  gorn="0.3.0.0.4"/>
      <path stroke-width="1.44" d="m9,7.2a1.8,1.8,0,0,1,-3.6,0,1.8,1.8,0,1,1,3.6,0z" style="stroke-linecap:round;stroke-linejoin:round;stroke-miterlimit:4;stroke-dasharray:none;stroke-dashoffset:0;display:inline" id="connector1pad" stroke="black" fill="none" stroke-opacity="1"  gorn="0.3.0.0.5"/>
      <path stroke-width="1.44" d="m16.2,7.2a1.8,1.8,0,0,1,-3.6,0,1.8,1.8,0,1,1,3.6,0z" style="stroke-linecap:round;stroke-linejoin:round;stroke-miterlimit:4;stroke-dasharray:none;stroke-dashoffset:0;display:inline" id="connector2pad" stroke="black" fill="none" stroke-opacity="1"  gorn="0.3.0.0.6"/>
      <path stroke-width="1.44" d="m23.4,7.2a1.8,1.8,0,0,1,-3.6,0,1.8,1.8,0,1,1,3.6,0z" style="stroke-linecap:round;stroke-linejoin:round;stroke-miterlimit:4;stroke-dasharray:none;stroke-dashoffset:0;display:inline" id="connector3pad" stroke="black" fill="none" stroke-opacity="1"  gorn="0.3.0.0.7"/>
      <path stroke-width="1.44" d="m30.6,7.2a1.8,1.8,0,0,1,-3.6,0,1.8,1.8,0,1,1,3.6,0z" style="stroke-linecap:round;stroke-linejoin:round;stroke-miterlimit:4;stroke-dasharray:none;stroke-dashoffset:0;display:inline" id="connector4pad" stroke="black" fill="none" stroke-opacity="1"  gorn="0.3.0.0.8"/>
      <path stroke-width="1.44" d="m37.8,7.2a1.8,1.8,0,0,1,-3.6,0,1.8,1.8,0,1,1,3.6,0z" style="stroke-linecap:round;stroke-linejoin:round;stroke-miterlimit:4;stroke-dasharray:none;stroke-dashoffset:0;display:inline" id="connector5pad" stroke="black" fill="none" stroke-opacity="1"  gorn="0.3.0.0.9"/>
     </g>
    </g>
   </g>
  </g>
  <g partID="854137261">
   <g transform="translate(144.8,89.6)">
    <g id="copper1"  gorn="0.3.0.0">
     <path stroke-width="1.44" d="m9,7.2a1.8,1.8,0,0,1,-3.6,0,1.8,1.8,0,1,1,3.6,0z" style="stroke-linecap:round;stroke-linejoin:round;stroke-miterlimit:4;stroke-dasharray:none;stroke-dashoffset:0;display:inline" id="path15" stroke="black" fill="none" stroke-opacity="1"  gorn="0.3.0.0.0"/>
     <path stroke-width="1.44" d="m16.2,7.2a1.8,1.8,0,0,1,-3.6,0,1.8,1.8,0,1,1,3.6,0z" style="stroke-linecap:round;stroke-linejoin:round;stroke-miterlimit:4;stroke-dasharray:none;stroke-dashoffset:0;display:inline" id="path17" stroke="black" fill="none" stroke-opacity="1"  gorn="0.3.0.0.1"/>
     <path stroke-width="1.44" d="m23.4,7.2a1.8,1.8,0,0,1,-3.6,0,1.8,1.8,0,1,1,3.6,0z" style="stroke-linecap:round;stroke-linejoin:round;stroke-miterlimit:4;stroke-dasharray:none;stroke-dashoffset:0;display:inline" id="path19" stroke="black" fill="none" stroke-opacity="1"  gorn="0.3.0.0.2"/>
     <path stroke-width="1.44" d="m30.6,7.2a1.8,1.8,0,0,1,-3.6,0,1.8,1.8,0,1,1,3.6,0z" style="stroke-linecap:round;stroke-linejoin:round;stroke-miterlimit:4;stroke-dasharray:none;stroke-dashoffset:0;display:inline" id="path21" stroke="black" fill="none" stroke-opacity="1"  gorn="0.3.0.0.3"/>
     <path stroke-width="1.44" d="m37.8,7.2a1.8,1.8,0,0,1,-3.6,0,1.8,1.8,0,1,1,3.6,0z" style="stroke-linecap:round;stroke-linejoin:round;stroke-miterlimit:4;stroke-dasharray:none;stroke-dashoffset:0;display:inline" id="path23" stroke="black" fill="none" stroke-opacity="1"  gorn="0.3.0.0.4"/>
     <path stroke-width="1.44" d="m9,7.2a1.8,1.8,0,0,1,-3.6,0,1.8,1.8,0,1,1,3.6,0z" style="stroke-linecap:round;stroke-linejoin:round;stroke-miterlimit:4;stroke-dasharray:none;stroke-dashoffset:0;display:inline" id="connector1pad" stroke="black" fill="none" stroke-opacity="1"  gorn="0.3.0.0.5"/>
     <path stroke-width="1.44" d="m16.2,7.2a1.8,1.8,0,0,1,-3.6,0,1.8,1.8,0,1,1,3.6,0z" style="stroke-linecap:round;stroke-linejoin:round;stroke-miterlimit:4;stroke-dasharray:none;stroke-dashoffset:0;display:inline" id="connector2pad" stroke="black" fill="none" stroke-opacity="1"  gorn="0.3.0.0.6"/>
     <path stroke-width="1.44" d="m23.4,7.2a1.8,1.8,0,0,1,-3.6,0,1.8,1.8,0,1,1,3.6,0z" style="stroke-linecap:round;stroke-linejoin:round;stroke-miterlimit:4;stroke-dasharray:none;stroke-dashoffset:0;display:inline" id="connector3pad" stroke="black" fill="none" stroke-opacity="1"  gorn="0.3.0.0.7"/>
     <path stroke-width="1.44" d="m30.6,7.2a1.8,1.8,0,0,1,-3.6,0,1.8,1.8,0,1,1,3.6,0z" style="stroke-linecap:round;stroke-linejoin:round;stroke-miterlimit:4;stroke-dasharray:none;stroke-dashoffset:0;display:inline" id="connector4pad" stroke="black" fill="none" stroke-opacity="1"  gorn="0.3.0.0.8"/>
     <path stroke-width="1.44" d="m37.8,7.2a1.8,1.8,0,0,1,-3.6,0,1.8,1.8,0,1,1,3.6,0z" style="stroke-linecap:round;stroke-linejoin:round;stroke-miterlimit:4;stroke-dasharray:none;stroke-dashoffset:0;display:inline" id="connector5pad" stroke="black" fill="none" stroke-opacity="1"  gorn="0.3.0.0.9"/>
    </g>
   </g>
  </g>
  <g partID="57851">
   <g transform="translate(0.6148,3.2)">
    <g id="copper1" >
     <g id="copper0" >
      <circle stroke-width="1" id="connector1pad" fill="none" stroke="black" cx="151.384" cy="144"  r="1.883"/>
      <circle stroke-width="1" id="connector2pad" fill="none" stroke="black" cx="158.583" cy="144"  r="1.883"/>
      <circle stroke-width="1" id="connector3pad" fill="none" stroke="black" cx="165.786" cy="144"  r="1.883"/>
      <circle stroke-width="1" id="connector4pad" fill="none" stroke="black" cx="172.985" cy="144"  r="1.883"/>
      <circle stroke-width="1" id="connector5pad" fill="none" stroke="black" cx="180.185" cy="144"  r="1.883"/>
      <circle stroke-width="1" id="connector51pad" fill="none" stroke="black" cx="118.263" cy="7.2"  r="1.884"/>
      <circle stroke-width="1" id="connector52pad" fill="none" stroke="black" cx="111.065" cy="7.2"  r="1.884"/>
      <circle stroke-width="1" id="connector53pad" fill="none" stroke="black" cx="103.864" cy="7.2"  r="1.884"/>
      <circle stroke-width="1" id="connector54pad" fill="none" stroke="black" cx="96.664" cy="7.2"  r="1.884"/>
      <circle stroke-width="1" id="connector55pad" fill="none" stroke="black" cx="89.464" cy="7.2"  r="1.884"/>
      <circle stroke-width="1" id="connector56pad" fill="none" stroke="black" cx="82.264" cy="7.2"  r="1.884"/>
      <circle stroke-width="1" id="connector57pad" fill="none" stroke="black" cx="75.064" cy="7.2"  r="1.884"/>
      <circle stroke-width="1" id="connector58pad" fill="none" stroke="black" cx="67.864" cy="7.2"  r="1.884"/>
      <circle stroke-width="1" id="connector59pad" fill="none" stroke="black" cx="60.664" cy="7.2"  r="1.884"/>
      <circle stroke-width="1" id="connector60pad" fill="none" stroke="black" cx="53.463" cy="7.2"  r="1.884"/>
      <circle stroke-width="1" id="connector61pad" fill="none" stroke="black" cx="180.185" cy="7.2"  r="1.884"/>
      <circle stroke-width="1" id="connector62pad" fill="none" stroke="black" cx="172.985" cy="7.2"  r="1.884"/>
      <circle stroke-width="1" id="connector63pad" fill="none" stroke="black" cx="165.786" cy="7.2"  r="1.884"/>
      <circle stroke-width="1" id="connector64pad" fill="none" stroke="black" cx="158.583" cy="7.2"  r="1.884"/>
      <circle stroke-width="1" id="connector65pad" fill="none" stroke="black" cx="151.384" cy="7.2"  r="1.884"/>
      <circle stroke-width="1" id="connector66pad" fill="none" stroke="black" cx="144.185" cy="7.2"  r="1.884"/>
      <circle stroke-width="1" id="connector67pad" fill="none" stroke="black" cx="136.985" cy="7.2"  r="1.884"/>
      <circle stroke-width="1" id="connector68pad" fill="none" stroke="black" cx="129.784" cy="7.2"  r="1.884"/>
      <circle stroke-width="1" id="connector84pad" fill="none" stroke="black" cx="86.584" cy="144"  r="1.883"/>
      <circle stroke-width="1" id="connector91pin" fill="none" stroke="black" cx="79.384" cy="144"  r="1.883"/>
      <circle stroke-width="1" id="connector85pad" fill="none" stroke="black" cx="93.784" cy="144"  r="1.883"/>
      <circle stroke-width="1" id="connector86pad" fill="none" stroke="black" cx="100.985" cy="144"  r="1.883"/>
      <circle stroke-width="1" id="connector87pad" fill="none" stroke="black" cx="108.185" cy="144"  r="1.883"/>
      <circle stroke-width="1" id="connector88pad" fill="none" stroke="black" cx="115.384" cy="144"  r="1.883"/>
      <circle stroke-width="1" id="connector89pad" fill="none" stroke="black" cx="122.583" cy="144"  r="1.883"/>
      <circle stroke-width="1" id="connector90pad" fill="none" stroke="black" cx="129.784" cy="144"  r="1.883"/>
      <circle stroke-width="1" id="connector0pad" fill="none" stroke="black" cx="144.185" cy="144"  r="1.883"/>
     </g>
    </g>
   </g>
  </g>
  <g partID="58061">
   <g transform="translate(74.96,91.76)">
    <g id="copper1" >
     <g id="copper0" >
      <rect stroke-width="1.44" id="square" x="2.952" fill="none" width="4.176" stroke="black" y="2.952" height="4.176" />
      <circle stroke-width="1.44" id="connector0pin" fill="none" stroke="black" cx="5.04" cy="5.04"  r="2.088"/>
      <circle stroke-width="1.44" id="connector1pin" fill="none" stroke="black" cx="5.04" cy="12.24"  r="2.088"/>
     </g>
    </g>
   </g>
  </g>
  <g partID="854100551">
   <g transform="translate(85.04,73.04)">
    <g transform="matrix(-1,0,0,-1,0,0)">
     <g id="copper1" >
      <g id="copper0" >
       <rect stroke-width="1.44" id="square" x="2.952" fill="none" width="4.176" stroke="black" y="2.952" height="4.176" />
       <circle stroke-width="1.44" id="connector0pin" fill="none" stroke="black" cx="5.04" cy="5.04"  r="2.088"/>
       <circle stroke-width="1.44" id="connector1pin" fill="none" stroke="black" cx="5.04" cy="12.24"  r="2.088"/>
       <circle stroke-width="1.44" id="connector2pin" fill="none" stroke="black" cx="5.04" cy="19.44"  r="2.088"/>
      </g>
     </g>
    </g>
   </g>
  </g>
  <g partID="854102751">
   <g transform="translate(40.7128,35.888)">
    <g transform="matrix(-1,0,0,-1,0,0)">
     <g id="copper1"  gorn="0.2">
      <rect stroke-width="1.23181" x="1.84772" width="4.13019" y="1.836" fill="none" stroke="black" height="4.104" />
      <circle stroke-width="1.23181" id="connector0pad" fill="none" stroke="black" cx="3.91281" cy="3.888" connectorname="1"  r="2.0651" gorn="0.2.1"/>
      <circle stroke-width="1.23181" id="connector1pad" fill="none" stroke="black" cx="3.91281" cy="11.088" connectorname="2"  r="2.0651" gorn="0.2.2"/>
      <circle stroke-width="1.23181" id="connector2pad" fill="none" stroke="black" cx="11.1588" cy="3.888" connectorname="3"  r="2.0651" gorn="0.2.3"/>
      <circle stroke-width="1.23181" id="connector3pad" fill="none" stroke="black" cx="11.1588" cy="11.088" connectorname="4"  r="2.0651" gorn="0.2.4"/>
      <circle stroke-width="1.23181" id="connector4pad" fill="none" stroke="black" cx="18.4047" cy="3.888" connectorname="5"  r="2.0651" gorn="0.2.5"/>
      <circle stroke-width="1.23181" id="connector5pad" fill="none" stroke="black" cx="18.4047" cy="11.088" connectorname="6"  r="2.0651" gorn="0.2.6"/>
      <circle stroke-width="1.23181" id="connector6pad" fill="none" stroke="black" cx="25.6507" cy="3.888" connectorname="7"  r="2.0651" gorn="0.2.7"/>
      <circle stroke-width="1.23181" id="connector7pad" fill="none" stroke="black" cx="25.6507" cy="11.088" connectorname="8"  r="2.0651" gorn="0.2.8"/>
      <g id="copper0"  gorn="0.2.9">
       <rect stroke-width="1.23181" x="1.84772" width="4.13019" y="1.836" fill="none" stroke="black" height="4.104" />
       <circle stroke-width="1.23181" id="connector6pin" fill="none" stroke="black" cx="3.91281" cy="3.888" connectorname="1"  r="2.0651" gorn="0.2.9.1"/>
       <circle stroke-width="1.23181" id="connector7pin" fill="none" stroke="black" cx="3.91281" cy="11.088" connectorname="2"  r="2.0651" gorn="0.2.9.2"/>
       <circle stroke-width="1.23181" id="connector4pin" fill="none" stroke="black" cx="11.1588" cy="3.888" connectorname="3"  r="2.0651" gorn="0.2.9.3"/>
       <circle stroke-width="1.23181" id="connector5pin" fill="none" stroke="black" cx="11.1588" cy="11.088" connectorname="4"  r="2.0651" gorn="0.2.9.4"/>
       <circle stroke-width="1.23181" id="connector2pin" fill="none" stroke="black" cx="18.4047" cy="3.888" connectorname="5"  r="2.0651" gorn="0.2.9.5"/>
       <circle stroke-width="1.23181" id="connector3pin" fill="none" stroke="black" cx="18.4047" cy="11.088" connectorname="6"  r="2.0651" gorn="0.2.9.6"/>
       <rect stroke-width="1.23181" x="23.5856" width="4.13019" y="1.836" fill="none" stroke="black" height="4.104" />
       <circle stroke-width="1.23181" id="connector0pin" fill="none" stroke="black" cx="25.6507" cy="3.888" connectorname="7"  r="2.0651" gorn="0.2.9.8"/>
       <circle stroke-width="1.23181" id="connector1pin" fill="none" stroke="black" cx="25.6507" cy="11.088" connectorname="8"  r="2.0651" gorn="0.2.9.9"/>
      </g>
     </g>
    </g>
   </g>
  </g>
  <g partID="854104891">
   <g transform="translate(170.72,49.28)">
    <g transform="matrix(0,1,-1,0,0,0)">
     <g id="copper1" >
      <g id="copper0" >
       <rect stroke-width="1.44" id="square" x="2.34" fill="none" stroke="black" width="3.96" y="2.34" height="3.96" />
       <circle stroke-width="1.44" id="connector0pin" fill="none" stroke="black" cx="4.32" cy="4.32"  r="1.98"/>
       <circle stroke-width="1.44" id="connector17pin" fill="none" stroke="black" cx="25.92" cy="4.32"  r="1.98"/>
       <circle stroke-width="1.44" id="connector1pin" fill="none" stroke="black" cx="4.32" cy="11.52"  r="1.98"/>
       <circle stroke-width="1.44" id="connector16pin" fill="none" stroke="black" cx="25.92" cy="11.52"  r="1.98"/>
       <circle stroke-width="1.44" id="connector2pin" fill="none" stroke="black" cx="4.32" cy="18.72"  r="1.98"/>
       <circle stroke-width="1.44" id="connector15pin" fill="none" stroke="black" cx="25.92" cy="18.72"  r="1.98"/>
       <circle stroke-width="1.44" id="connector3pin" fill="none" stroke="black" cx="4.32" cy="25.92"  r="1.98"/>
       <circle stroke-width="1.44" id="connector14pin" fill="none" stroke="black" cx="25.92" cy="25.92"  r="1.98"/>
       <circle stroke-width="1.44" id="connector4pin" fill="none" stroke="black" cx="4.32" cy="33.12"  r="1.98"/>
       <circle stroke-width="1.44" id="connector13pin" fill="none" stroke="black" cx="25.92" cy="33.12"  r="1.98"/>
       <circle stroke-width="1.44" id="connector5pin" fill="none" stroke="black" cx="4.32" cy="40.32"  r="1.98"/>
       <circle stroke-width="1.44" id="connector12pin" fill="none" stroke="black" cx="25.92" cy="40.32"  r="1.98"/>
       <circle stroke-width="1.44" id="connector6pin" fill="none" stroke="black" cx="4.32" cy="47.52"  r="1.98"/>
       <circle stroke-width="1.44" id="connector11pin" fill="none" stroke="black" cx="25.92" cy="47.52"  r="1.98"/>
       <circle stroke-width="1.44" id="connector7pin" fill="none" stroke="black" cx="4.32" cy="54.72"  r="1.98"/>
       <circle stroke-width="1.44" id="connector10pin" fill="none" stroke="black" cx="25.92" cy="54.72"  r="1.98"/>
       <circle stroke-width="1.44" id="connector8pin" fill="none" stroke="black" cx="4.32" cy="61.92"  r="1.98"/>
       <circle stroke-width="1.44" id="connector9pin" fill="none" stroke="black" cx="25.92" cy="61.92"  r="1.98"/>
      </g>
     </g>
    </g>
   </g>
  </g>
  <g partID="854128401">
   <g transform="translate(11.5955,88.8346)">
    <g transform="matrix(1,0,0,1,0,0)">
     <g id="copper1" >
      <circle stroke-width="1.25575" id="connector1pad" stroke="black" fill="none" cx="18.0045" cy="35.0079" connectorname="2"  r="2.61213"/>
      <circle stroke-width="1.25575" id="connector0pad" stroke="black" fill="none" cx="18.0045" cy="15.1654" connectorname="1"  r="2.61213"/>
      <g id="copper0" >
       <circle stroke-width="1.25575" id="connector1pad" stroke="black" fill="none" cx="18.0045" cy="35.0079" connectorname="2"  r="2.61213"/>
       <circle stroke-width="1.25575" id="connector0pad" stroke="black" fill="none" cx="18.0045" cy="15.1654" connectorname="1"  r="2.61213"/>
      </g>
     </g>
    </g>
   </g>
  </g>
  <g partID="854317631">
   <g transform="translate(126.084,20.4844)">
    <g id="copper1" >
     <circle stroke-width="1.44" id="connector0pin" fill="none" stroke="black" cx="4.31559" cy="4.31559"  r="1.99559"/>
    </g>
   </g>
  </g>
  <g partID="854317661">
   <g transform="translate(133.284,27.6844)">
    <g id="copper1" >
     <circle stroke-width="1.44" id="connector0pin" fill="none" stroke="black" cx="4.31559" cy="4.31559"  r="1.99559"/>
    </g>
   </g>
  </g>
  <g partID="854317831">
   <g transform="translate(10.8844,56.4844)">
    <g id="copper1" >
     <circle stroke-width="1.44" id="connector0pin" fill="none" stroke="black" cx="4.31559" cy="4.31559"  r="1.99559"/>
    </g>
   </g>
  </g>
  <g partID="854318411">
   <g transform="translate(46.8844,20.4844)">
    <g id="copper1" >
     <circle stroke-width="1.44" id="connector0pin" fill="none" stroke="black" cx="4.31559" cy="4.31559"  r="1.99559"/>
    </g>
   </g>
  </g>
  <g partID="854395870">
   <g transform="translate(82.1268,79.8468)">
    <g id="copper1" >
     <text stroke-width="0" id="label" x="10.0947" y="18.1704" fill="black" font-size="20.1893" text-anchor="middle" xml:space="preserve"  xmlns:xml="http://www.w3.org/XML/1998/namespace" font-family="OCRA">-</text>
    </g>
   </g>
  </g>
  <g partID="854395920">
   <g transform="translate(14.2172,106.613)">
    <g id="copper1" >
     <text stroke-width="0" id="label" x="19.1463" y="11.4878" fill="black" font-size="12.7642" text-anchor="middle" xml:space="preserve"  xmlns:xml="http://www.w3.org/XML/1998/namespace" font-family="OCRA">_/_</text>
    </g>
   </g>
  </g>
  <g partID="854395900">
   <g transform="translate(82.1208,100.146)">
    <g id="copper1" >
     <text stroke-width="0" id="label" x="10.0947" y="18.1704" fill="black" font-size="20.1893" text-anchor="middle" xml:space="preserve"  xmlns:xml="http://www.w3.org/XML/1998/namespace" font-family="OCRA">+</text>
    </g>
   </g>
  </g>
  <g partID="854387360">
   <line stroke-width="1.728" stroke="black" y1="17.6071" stroke-linecap="round" y2="22.5509" x1="29.6071" x2="29.5706"/>
  </g>
  <g partID="854387290">
   <line stroke-width="1.728" stroke="black" y1="17.6071" stroke-linecap="round" y2="17.6071" x1="15.1106" x2="29.6071"/>
  </g>
  <g partID="854387220">
   <line stroke-width="1.728" stroke="black" y1="22.5509" stroke-linecap="round" y2="17.6071" x1="15.0773" x2="15.1106"/>
  </g>
  <g partID="854310900">
   <line stroke-width="2.304" stroke="black" y1="68" stroke-linecap="round" y2="68" x1="65.4872" x2="77.432"/>
  </g>
  <g partID="854317200">
   <line stroke-width="2.304" stroke="black" y1="75.2138" stroke-linecap="round" y2="75.2024" x1="94.4276" x2="106.34"/>
  </g>
  <g partID="854317070">
   <line stroke-width="2.304" stroke="black" y1="60.79" stroke-linecap="round" y2="60.7436" x1="82.568" x2="94.5128"/>
  </g>
  <g partID="854317060">
   <line stroke-width="2.304" stroke="black" y1="60.7436" stroke-linecap="round" y2="75.2138" x1="94.5128" x2="94.4276"/>
  </g>
  <g partID="854310750">
   <line stroke-width="2.304" stroke="black" y1="31.6188" stroke-linecap="round" y2="68" x1="66.5038" x2="65.4872"/>
  </g>
  <g partID="854309090">
   <line stroke-width="2.304" stroke="black" y1="12.9164" stroke-linecap="round" y2="51.0992" x1="89.4918" x2="80.5835"/>
  </g>
  <g partID="854315100">
   <line stroke-width="3.456" stroke="black" y1="75.1856" stroke-linecap="round" y2="93.832" x1="80" x2="80"/>
  </g>
  <g partID="854314850">
   <line stroke-width="3.456" stroke="black" y1="70.968" stroke-linecap="round" y2="75.1856" x1="80" x2="80"/>
  </g>
  <g partID="854316590">
   <line stroke-width="3.456" stroke="black" y1="125.71" stroke-linecap="round" y2="144.217" x1="116.069" x2="116.009"/>
  </g>
  <g partID="854316540">
   <line stroke-width="3.456" stroke="black" y1="125.71" stroke-linecap="round" y2="125.71" x1="187.894" x2="116.069"/>
  </g>
  <g partID="854312240">
   <line stroke-width="3.456" stroke="black" y1="125.485" stroke-linecap="round" y2="123.917" x1="108.742" x2="33.1835"/>
  </g>
  <g partID="854312050">
   <line stroke-width="3.456" stroke="black" y1="144.217" stroke-linecap="round" y2="125.485" x1="108.792" x2="108.742"/>
  </g>
  <g partID="854304430">
   <line stroke-width="3.456" stroke="black" y1="99.48" stroke-linecap="round" y2="144.217" x1="108.8" x2="108.8"/>
  </g>
  <g partID="854300060">
   <line stroke-width="3.456" stroke="black" y1="104" stroke-linecap="round" y2="104" x1="33.1843" x2="77.032"/>
  </g>
  <g partID="854316690">
   <line stroke-width="3.456" stroke="black" y1="125.71" stroke-linecap="round" y2="144.217" x1="123.283" x2="123.21"/>
  </g>
  <g partID="854316640">
   <line stroke-width="3.456" stroke="black" y1="125.71" stroke-linecap="round" y2="125.71" x1="116.069" x2="123.283"/>
  </g>
  <g partID="854316490">
   <line stroke-width="3.456" stroke="black" y1="60.7862" stroke-linecap="round" y2="125.71" x1="187.894" x2="187.894"/>
  </g>
  <g partID="854316440">
   <line stroke-width="3.456" stroke="black" y1="60.7862" stroke-linecap="round" y2="60.7862" x1="108.855" x2="187.893"/>
  </g>
  <g partID="854316390">
   <line stroke-width="3.456" stroke="black" y1="56.4599" stroke-linecap="round" y2="60.7862" x1="108.822" x2="108.855"/>
  </g>
  <g partID="854314450">
   <line stroke-width="2.304" stroke="black" y1="94.52" stroke-linecap="round" y2="77.66" x1="108.8" x2="108.8"/>
  </g>
  <g partID="854308580">
   <line stroke-width="3.456" stroke="black" y1="111.283" stroke-linecap="round" y2="111.283" x1="180.679" x2="108.855"/>
  </g>
  <g partID="854308370">
   <line stroke-width="3.456" stroke="black" y1="111.283" stroke-linecap="round" y2="144.217" x1="108.855" x2="108.804"/>
  </g>
  <g partID="854308160">
   <line stroke-width="3.456" stroke="black" y1="99.4799" stroke-linecap="round" y2="111.283" x1="180.778" x2="180.679"/>
  </g>
  <g partID="854307980">
   <line stroke-width="2.304" stroke="black" y1="94.52" stroke-linecap="round" y2="77.66" x1="116" x2="116"/>
  </g>
  <g partID="854324830">
   <line stroke-width="2.304" stroke="black" y1="32.0882" stroke-linecap="round" y2="51.5596" x1="115.912" x2="129.026"/>
  </g>
  <g partID="854324780">
   <line stroke-width="2.304" stroke="black" y1="32.0882" stroke-linecap="round" y2="51.5588" x1="108.729" x2="121.827"/>
  </g>
  <g partID="854324750">
   <line stroke-width="2.304" stroke="black" y1="32.0882" stroke-linecap="round" y2="51.5581" x1="101.547" x2="114.628"/>
  </g>
  <g partID="854323360">
   <line stroke-width="2.304" stroke="black" y1="75.2306" stroke-linecap="round" y2="75.2104" x1="173.636" x2="168.86"/>
  </g>
  <g partID="854309070">
   <line stroke-width="2.304" stroke="black" y1="12.9354" stroke-linecap="round" y2="32.0882" x1="97.7778" x2="101.547"/>
  </g>
  <g partID="854309030">
   <line stroke-width="2.304" stroke="black" y1="12.9358" stroke-linecap="round" y2="32.0882" x1="104.976" x2="108.729"/>
  </g>
  <g partID="854309010">
   <line stroke-width="2.304" stroke="black" y1="12.9362" stroke-linecap="round" y2="32.0882" x1="112.175" x2="115.912"/>
  </g>
  <g partID="854308120">
   <line stroke-width="2.304" stroke="black" y1="94.52" stroke-linecap="round" y2="75.2306" x1="173.604" x2="173.636"/>
  </g>
  <g partID="854308100">
   <line stroke-width="2.304" stroke="black" y1="94.637" stroke-linecap="round" y2="77.5338" x1="165.679" x2="159.978"/>
  </g>
  <g partID="854308080">
   <line stroke-width="2.304" stroke="black" y1="94.637" stroke-linecap="round" y2="77.5338" x1="158.479" x2="152.778"/>
  </g>
  <g partID="854308060">
   <line stroke-width="2.304" stroke="black" y1="94.637" stroke-linecap="round" y2="77.5338" x1="151.279" x2="145.578"/>
  </g>
  <g partID="854308040">
   <line stroke-width="2.304" stroke="black" y1="94.52" stroke-linecap="round" y2="77.66" x1="137.6" x2="137.6"/>
  </g>
  <g partID="854308020">
   <line stroke-width="2.304" stroke="black" y1="94.52" stroke-linecap="round" y2="77.66" x1="130.4" x2="130.4"/>
  </g>
  <g partID="854308000">
   <line stroke-width="2.304" stroke="black" y1="94.52" stroke-linecap="round" y2="77.66" x1="123.2" x2="123.2"/>
  </g>
  <g partID="854324860">
   <line stroke-width="2.304" stroke="black" y1="32.0882" stroke-linecap="round" y2="51.5604" x1="123.094" x2="136.225"/>
  </g>
  <g partID="854308970">
   <line stroke-width="2.304" stroke="black" y1="12.9365" stroke-linecap="round" y2="32.0882" x1="119.371" x2="123.094"/>
  </g>
  <g partID="854308950">
   <line stroke-width="2.304" stroke="black" y1="12.984" stroke-linecap="round" y2="51.14" x1="144.8" x2="144.8"/>
  </g>
  <g partID="854308910">
   <line stroke-width="2.304" stroke="black" y1="12.984" stroke-linecap="round" y2="51.14" x1="151.999" x2="152"/>
  </g>
  <g partID="854308890">
   <line stroke-width="2.304" stroke="black" y1="12.984" stroke-linecap="round" y2="51.14" x1="159.198" x2="159.2"/>
  </g>
  <g partID="854308870">
   <line stroke-width="2.304" stroke="black" y1="12.984" stroke-linecap="round" y2="51.14" x1="166.401" x2="166.4"/>
  </g>
  <g partID="854317760">
   <line stroke-width="2.304" stroke="black" y1="12.984" stroke-linecap="round" y2="22.3244" x1="130.399" x2="130.4"/>
  </g>
  <g partID="854317690">
   <line stroke-width="2.304" stroke="black" y1="12.984" stroke-linecap="round" y2="29.5244" x1="137.6" x2="137.6"/>
  </g>
  <g partID="854389410">
   <line stroke-width="2.304" stroke="black" y1="58.7244" stroke-linecap="round" y2="34.2492" x1="15.1901" x2="15.0729"/>
  </g>
  <g partID="854390730">
   <line stroke-width="1.728" stroke="black" y1="31.9122" stroke-linecap="round" y2="31.9931" x1="65.6236" x2="39.0492"/>
  </g>
  <g partID="854390620">
   <line stroke-width="1.728" stroke="black" y1="31.6188" stroke-linecap="round" y2="31.9122" x1="66.5038" x2="65.6236"/>
  </g>
  <g partID="854391080">
   <line stroke-width="2.304" stroke="black" y1="24.8" stroke-linecap="round" y2="24.8" x1="49.1244" x2="39.0492"/>
  </g>
  <g partID="854391550">
   <line stroke-width="1.728" stroke="black" y1="31.6188" stroke-linecap="round" y2="31.9122" x1="66.5038" x2="72.6651"/>
  </g>
  <g partID="854391640">
   <line stroke-width="1.728" stroke="black" y1="31.9122" stroke-linecap="round" y2="12.5629" x1="72.6651" x2="75.3759"/>
  </g>
  <g partID="854392240">
   <line stroke-width="2.304" stroke="black" y1="132.67" stroke-linecap="round" y2="24.8866" x1="8.14425" x2="8.14425"/>
  </g>
  <g partID="854392170">
   <line stroke-width="2.304" stroke="black" y1="24.8866" stroke-linecap="round" y2="24.8281" x1="8.14425" x2="12.8131"/>
  </g>
  <g partID="854392310">
   <line stroke-width="2.304" stroke="black" y1="132.67" stroke-linecap="round" y2="132.67" x1="101.557" x2="8.14425"/>
  </g>
  <g partID="854392100">
   <line stroke-width="2.304" stroke="black" y1="145.017" stroke-linecap="round" y2="132.67" x1="101.593" x2="101.557"/>
  </g>
 </g>
</svg>
