<?xml version='1.0' encoding='UTF-8' standalone='no'?>
<!-- Created with Fritzing (http://www.fritzing.org/) -->
<svg xmlns="http://www.w3.org/2000/svg" width="2.7409in" viewBox="0 0 197.345 157.491" xmlns:svg="http://www.w3.org/2000/svg" height="2.18737in"  baseProfile="tiny" x="0in" version="1.2" y="0in">
 <g partID="57360">
  <g id="board" >
   <rect id="boardoutline" fill="none" stroke="black" stroke-width="0.5" width="196.769" fill-opacity="0.5" height="156.915"  x="0.288" y="0.288"/>
  </g>
 </g>
 <g partID="854136210">
  <g transform="translate(144.8,104)">
   <g transform="matrix(-1,0,0,-1,0,0)">
    <g id="copper0"  gorn="0.3.0">
     <g id="copper1"  gorn="0.3.0.0">
      <path style="stroke-linecap:round;stroke-linejoin:round;stroke-miterlimit:4;stroke-dasharray:none;stroke-dashoffset:0;display:inline" id="path15" stroke="black" fill="none" stroke-width="1.44" stroke-opacity="1"  d="m9,7.2a1.8,1.8,0,0,1,-3.6,0,1.8,1.8,0,1,1,3.6,0z" gorn="0.3.0.0.0"/>
      <path style="stroke-linecap:round;stroke-linejoin:round;stroke-miterlimit:4;stroke-dasharray:none;stroke-dashoffset:0;display:inline" id="path17" stroke="black" fill="none" stroke-width="1.44" stroke-opacity="1"  d="m16.2,7.2a1.8,1.8,0,0,1,-3.6,0,1.8,1.8,0,1,1,3.6,0z" gorn="0.3.0.0.1"/>
      <path style="stroke-linecap:round;stroke-linejoin:round;stroke-miterlimit:4;stroke-dasharray:none;stroke-dashoffset:0;display:inline" id="path19" stroke="black" fill="none" stroke-width="1.44" stroke-opacity="1"  d="m23.4,7.2a1.8,1.8,0,0,1,-3.6,0,1.8,1.8,0,1,1,3.6,0z" gorn="0.3.0.0.2"/>
      <path style="stroke-linecap:round;stroke-linejoin:round;stroke-miterlimit:4;stroke-dasharray:none;stroke-dashoffset:0;display:inline" id="path21" stroke="black" fill="none" stroke-width="1.44" stroke-opacity="1"  d="m30.6,7.2a1.8,1.8,0,0,1,-3.6,0,1.8,1.8,0,1,1,3.6,0z" gorn="0.3.0.0.3"/>
      <path style="stroke-linecap:round;stroke-linejoin:round;stroke-miterlimit:4;stroke-dasharray:none;stroke-dashoffset:0;display:inline" id="path23" stroke="black" fill="none" stroke-width="1.44" stroke-opacity="1"  d="m37.8,7.2a1.8,1.8,0,0,1,-3.6,0,1.8,1.8,0,1,1,3.6,0z" gorn="0.3.0.0.4"/>
      <path style="stroke-linecap:round;stroke-linejoin:round;stroke-miterlimit:4;stroke-dasharray:none;stroke-dashoffset:0;display:inline" id="connector1pad" stroke="black" fill="none" stroke-width="1.44" stroke-opacity="1"  d="m9,7.2a1.8,1.8,0,0,1,-3.6,0,1.8,1.8,0,1,1,3.6,0z" gorn="0.3.0.0.5"/>
      <path style="stroke-linecap:round;stroke-linejoin:round;stroke-miterlimit:4;stroke-dasharray:none;stroke-dashoffset:0;display:inline" id="connector2pad" stroke="black" fill="none" stroke-width="1.44" stroke-opacity="1"  d="m16.2,7.2a1.8,1.8,0,0,1,-3.6,0,1.8,1.8,0,1,1,3.6,0z" gorn="0.3.0.0.6"/>
      <path style="stroke-linecap:round;stroke-linejoin:round;stroke-miterlimit:4;stroke-dasharray:none;stroke-dashoffset:0;display:inline" id="connector3pad" stroke="black" fill="none" stroke-width="1.44" stroke-opacity="1"  d="m23.4,7.2a1.8,1.8,0,0,1,-3.6,0,1.8,1.8,0,1,1,3.6,0z" gorn="0.3.0.0.7"/>
      <path style="stroke-linecap:round;stroke-linejoin:round;stroke-miterlimit:4;stroke-dasharray:none;stroke-dashoffset:0;display:inline" id="connector4pad" stroke="black" fill="none" stroke-width="1.44" stroke-opacity="1"  d="m30.6,7.2a1.8,1.8,0,0,1,-3.6,0,1.8,1.8,0,1,1,3.6,0z" gorn="0.3.0.0.8"/>
      <path style="stroke-linecap:round;stroke-linejoin:round;stroke-miterlimit:4;stroke-dasharray:none;stroke-dashoffset:0;display:inline" id="connector5pad" stroke="black" fill="none" stroke-width="1.44" stroke-opacity="1"  d="m37.8,7.2a1.8,1.8,0,0,1,-3.6,0,1.8,1.8,0,1,1,3.6,0z" gorn="0.3.0.0.9"/>
     </g>
    </g>
   </g>
  </g>
 </g>
 <g partID="854137260">
  <g transform="translate(144.8,89.6)">
   <g id="copper0"  gorn="0.3.0">
    <g id="copper1"  gorn="0.3.0.0">
     <path style="stroke-linecap:round;stroke-linejoin:round;stroke-miterlimit:4;stroke-dasharray:none;stroke-dashoffset:0;display:inline" id="path15" stroke="black" fill="none" stroke-width="1.44" stroke-opacity="1"  d="m9,7.2a1.8,1.8,0,0,1,-3.6,0,1.8,1.8,0,1,1,3.6,0z" gorn="0.3.0.0.0"/>
     <path style="stroke-linecap:round;stroke-linejoin:round;stroke-miterlimit:4;stroke-dasharray:none;stroke-dashoffset:0;display:inline" id="path17" stroke="black" fill="none" stroke-width="1.44" stroke-opacity="1"  d="m16.2,7.2a1.8,1.8,0,0,1,-3.6,0,1.8,1.8,0,1,1,3.6,0z" gorn="0.3.0.0.1"/>
     <path style="stroke-linecap:round;stroke-linejoin:round;stroke-miterlimit:4;stroke-dasharray:none;stroke-dashoffset:0;display:inline" id="path19" stroke="black" fill="none" stroke-width="1.44" stroke-opacity="1"  d="m23.4,7.2a1.8,1.8,0,0,1,-3.6,0,1.8,1.8,0,1,1,3.6,0z" gorn="0.3.0.0.2"/>
     <path style="stroke-linecap:round;stroke-linejoin:round;stroke-miterlimit:4;stroke-dasharray:none;stroke-dashoffset:0;display:inline" id="path21" stroke="black" fill="none" stroke-width="1.44" stroke-opacity="1"  d="m30.6,7.2a1.8,1.8,0,0,1,-3.6,0,1.8,1.8,0,1,1,3.6,0z" gorn="0.3.0.0.3"/>
     <path style="stroke-linecap:round;stroke-linejoin:round;stroke-miterlimit:4;stroke-dasharray:none;stroke-dashoffset:0;display:inline" id="path23" stroke="black" fill="none" stroke-width="1.44" stroke-opacity="1"  d="m37.8,7.2a1.8,1.8,0,0,1,-3.6,0,1.8,1.8,0,1,1,3.6,0z" gorn="0.3.0.0.4"/>
     <path style="stroke-linecap:round;stroke-linejoin:round;stroke-miterlimit:4;stroke-dasharray:none;stroke-dashoffset:0;display:inline" id="connector1pad" stroke="black" fill="none" stroke-width="1.44" stroke-opacity="1"  d="m9,7.2a1.8,1.8,0,0,1,-3.6,0,1.8,1.8,0,1,1,3.6,0z" gorn="0.3.0.0.5"/>
     <path style="stroke-linecap:round;stroke-linejoin:round;stroke-miterlimit:4;stroke-dasharray:none;stroke-dashoffset:0;display:inline" id="connector2pad" stroke="black" fill="none" stroke-width="1.44" stroke-opacity="1"  d="m16.2,7.2a1.8,1.8,0,0,1,-3.6,0,1.8,1.8,0,1,1,3.6,0z" gorn="0.3.0.0.6"/>
     <path style="stroke-linecap:round;stroke-linejoin:round;stroke-miterlimit:4;stroke-dasharray:none;stroke-dashoffset:0;display:inline" id="connector3pad" stroke="black" fill="none" stroke-width="1.44" stroke-opacity="1"  d="m23.4,7.2a1.8,1.8,0,0,1,-3.6,0,1.8,1.8,0,1,1,3.6,0z" gorn="0.3.0.0.7"/>
     <path style="stroke-linecap:round;stroke-linejoin:round;stroke-miterlimit:4;stroke-dasharray:none;stroke-dashoffset:0;display:inline" id="connector4pad" stroke="black" fill="none" stroke-width="1.44" stroke-opacity="1"  d="m30.6,7.2a1.8,1.8,0,0,1,-3.6,0,1.8,1.8,0,1,1,3.6,0z" gorn="0.3.0.0.8"/>
     <path style="stroke-linecap:round;stroke-linejoin:round;stroke-miterlimit:4;stroke-dasharray:none;stroke-dashoffset:0;display:inline" id="connector5pad" stroke="black" fill="none" stroke-width="1.44" stroke-opacity="1"  d="m37.8,7.2a1.8,1.8,0,0,1,-3.6,0,1.8,1.8,0,1,1,3.6,0z" gorn="0.3.0.0.9"/>
    </g>
   </g>
  </g>
 </g>
 <g partID="57850">
  <g transform="translate(0.6148,3.2)">
   <g id="copper0" >
    <circle id="connector1pad" fill="none" stroke="black" stroke-width="1" cx="151.384" r="1.883" cy="144" />
    <circle id="connector2pad" fill="none" stroke="black" stroke-width="1" cx="158.583" r="1.883" cy="144" />
    <circle id="connector3pad" fill="none" stroke="black" stroke-width="1" cx="165.786" r="1.883" cy="144" />
    <circle id="connector4pad" fill="none" stroke="black" stroke-width="1" cx="172.985" r="1.883" cy="144" />
    <circle id="connector5pad" fill="none" stroke="black" stroke-width="1" cx="180.185" r="1.883" cy="144" />
    <circle id="connector51pad" fill="none" stroke="black" stroke-width="1" cx="118.263" r="1.884" cy="7.2" />
    <circle id="connector52pad" fill="none" stroke="black" stroke-width="1" cx="111.065" r="1.884" cy="7.2" />
    <circle id="connector53pad" fill="none" stroke="black" stroke-width="1" cx="103.864" r="1.884" cy="7.2" />
    <circle id="connector54pad" fill="none" stroke="black" stroke-width="1" cx="96.664" r="1.884" cy="7.2" />
    <circle id="connector55pad" fill="none" stroke="black" stroke-width="1" cx="89.464" r="1.884" cy="7.2" />
    <circle id="connector56pad" fill="none" stroke="black" stroke-width="1" cx="82.264" r="1.884" cy="7.2" />
    <circle id="connector57pad" fill="none" stroke="black" stroke-width="1" cx="75.064" r="1.884" cy="7.2" />
    <circle id="connector58pad" fill="none" stroke="black" stroke-width="1" cx="67.864" r="1.884" cy="7.2" />
    <circle id="connector59pad" fill="none" stroke="black" stroke-width="1" cx="60.664" r="1.884" cy="7.2" />
    <circle id="connector60pad" fill="none" stroke="black" stroke-width="1" cx="53.463" r="1.884" cy="7.2" />
    <circle id="connector61pad" fill="none" stroke="black" stroke-width="1" cx="180.185" r="1.884" cy="7.2" />
    <circle id="connector62pad" fill="none" stroke="black" stroke-width="1" cx="172.985" r="1.884" cy="7.2" />
    <circle id="connector63pad" fill="none" stroke="black" stroke-width="1" cx="165.786" r="1.884" cy="7.2" />
    <circle id="connector64pad" fill="none" stroke="black" stroke-width="1" cx="158.583" r="1.884" cy="7.2" />
    <circle id="connector65pad" fill="none" stroke="black" stroke-width="1" cx="151.384" r="1.884" cy="7.2" />
    <circle id="connector66pad" fill="none" stroke="black" stroke-width="1" cx="144.185" r="1.884" cy="7.2" />
    <circle id="connector67pad" fill="none" stroke="black" stroke-width="1" cx="136.985" r="1.884" cy="7.2" />
    <circle id="connector68pad" fill="none" stroke="black" stroke-width="1" cx="129.784" r="1.884" cy="7.2" />
    <circle id="connector84pad" fill="none" stroke="black" stroke-width="1" cx="86.584" r="1.883" cy="144" />
    <circle id="connector91pin" fill="none" stroke="black" stroke-width="1" cx="79.384" r="1.883" cy="144" />
    <circle id="connector85pad" fill="none" stroke="black" stroke-width="1" cx="93.784" r="1.883" cy="144" />
    <circle id="connector86pad" fill="none" stroke="black" stroke-width="1" cx="100.985" r="1.883" cy="144" />
    <circle id="connector87pad" fill="none" stroke="black" stroke-width="1" cx="108.185" r="1.883" cy="144" />
    <circle id="connector88pad" fill="none" stroke="black" stroke-width="1" cx="115.384" r="1.883" cy="144" />
    <circle id="connector89pad" fill="none" stroke="black" stroke-width="1" cx="122.583" r="1.883" cy="144" />
    <circle id="connector90pad" fill="none" stroke="black" stroke-width="1" cx="129.784" r="1.883" cy="144" />
    <circle id="connector0pad" fill="none" stroke="black" stroke-width="1" cx="144.185" r="1.883" cy="144" />
   </g>
  </g>
 </g>
 <g partID="58060">
  <g transform="translate(63.44,134.96)">
   <g transform="matrix(0,1,-1,0,0,0)">
    <g id="copper0" >
     <rect id="square" fill="none" width="4.176" stroke="black" stroke-width="1.44" height="4.176"  x="2.952" y="2.952"/>
     <circle id="connector0pin" fill="none" stroke="black" stroke-width="1.44" cx="5.04" r="2.088" cy="5.04" />
     <circle id="connector1pin" fill="none" stroke="black" stroke-width="1.44" cx="5.04" r="2.088" cy="12.24" />
    </g>
   </g>
  </g>
 </g>
 <g partID="854100550">
  <g transform="translate(85.04,58.64)">
   <g transform="matrix(-1,0,0,-1,0,0)">
    <g id="copper0" >
     <rect id="square" fill="none" width="4.176" stroke="black" stroke-width="1.44" height="4.176"  x="2.952" y="2.952"/>
     <circle id="connector0pin" fill="none" stroke="black" stroke-width="1.44" cx="5.04" r="2.088" cy="5.04" />
     <circle id="connector1pin" fill="none" stroke="black" stroke-width="1.44" cx="5.04" r="2.088" cy="12.24" />
     <circle id="connector2pin" fill="none" stroke="black" stroke-width="1.44" cx="5.04" r="2.088" cy="19.44" />
    </g>
   </g>
  </g>
 </g>
 <g partID="854102750">
  <g transform="translate(40.7128,35.888)">
   <g transform="matrix(-1,0,0,-1,0,0)">
    <g id="copper0"  gorn="0.2.9">
     <rect width="4.13019" fill="none" stroke="black" stroke-width="1.23181" height="4.104"  x="1.84772" y="1.836"/>
     <circle connectorname="1" id="connector6pin" fill="none" stroke="black" stroke-width="1.23181" cx="3.91281" r="2.0651" cy="3.888"  gorn="0.2.9.1"/>
     <circle connectorname="2" id="connector7pin" fill="none" stroke="black" stroke-width="1.23181" cx="3.91281" r="2.0651" cy="11.088"  gorn="0.2.9.2"/>
     <circle connectorname="3" id="connector4pin" fill="none" stroke="black" stroke-width="1.23181" cx="11.1588" r="2.0651" cy="3.888"  gorn="0.2.9.3"/>
     <circle connectorname="4" id="connector5pin" fill="none" stroke="black" stroke-width="1.23181" cx="11.1588" r="2.0651" cy="11.088"  gorn="0.2.9.4"/>
     <circle connectorname="5" id="connector2pin" fill="none" stroke="black" stroke-width="1.23181" cx="18.4047" r="2.0651" cy="3.888"  gorn="0.2.9.5"/>
     <circle connectorname="6" id="connector3pin" fill="none" stroke="black" stroke-width="1.23181" cx="18.4047" r="2.0651" cy="11.088"  gorn="0.2.9.6"/>
     <rect width="4.13019" fill="none" stroke="black" stroke-width="1.23181" height="4.104"  x="23.5856" y="1.836"/>
     <circle connectorname="7" id="connector0pin" fill="none" stroke="black" stroke-width="1.23181" cx="25.6507" r="2.0651" cy="3.888"  gorn="0.2.9.8"/>
     <circle connectorname="8" id="connector1pin" fill="none" stroke="black" stroke-width="1.23181" cx="25.6507" r="2.0651" cy="11.088"  gorn="0.2.9.9"/>
    </g>
   </g>
  </g>
 </g>
 <g partID="854104890">
  <g transform="translate(170.72,49.28)">
   <g transform="matrix(0,1,-1,0,0,0)">
    <g id="copper0" >
     <rect id="square" fill="none" stroke="black" stroke-width="1.44" width="3.96" height="3.96"  x="2.34" y="2.34"/>
     <circle id="connector0pin" fill="none" stroke="black" stroke-width="1.44" cx="4.32" r="1.98" cy="4.32" />
     <circle id="connector17pin" fill="none" stroke="black" stroke-width="1.44" cx="25.92" r="1.98" cy="4.32" />
     <circle id="connector1pin" fill="none" stroke="black" stroke-width="1.44" cx="4.32" r="1.98" cy="11.52" />
     <circle id="connector16pin" fill="none" stroke="black" stroke-width="1.44" cx="25.92" r="1.98" cy="11.52" />
     <circle id="connector2pin" fill="none" stroke="black" stroke-width="1.44" cx="4.32" r="1.98" cy="18.72" />
     <circle id="connector15pin" fill="none" stroke="black" stroke-width="1.44" cx="25.92" r="1.98" cy="18.72" />
     <circle id="connector3pin" fill="none" stroke="black" stroke-width="1.44" cx="4.32" r="1.98" cy="25.92" />
     <circle id="connector14pin" fill="none" stroke="black" stroke-width="1.44" cx="25.92" r="1.98" cy="25.92" />
     <circle id="connector4pin" fill="none" stroke="black" stroke-width="1.44" cx="4.32" r="1.98" cy="33.12" />
     <circle id="connector13pin" fill="none" stroke="black" stroke-width="1.44" cx="25.92" r="1.98" cy="33.12" />
     <circle id="connector5pin" fill="none" stroke="black" stroke-width="1.44" cx="4.32" r="1.98" cy="40.32" />
     <circle id="connector12pin" fill="none" stroke="black" stroke-width="1.44" cx="25.92" r="1.98" cy="40.32" />
     <circle id="connector6pin" fill="none" stroke="black" stroke-width="1.44" cx="4.32" r="1.98" cy="47.52" />
     <circle id="connector11pin" fill="none" stroke="black" stroke-width="1.44" cx="25.92" r="1.98" cy="47.52" />
     <circle id="connector7pin" fill="none" stroke="black" stroke-width="1.44" cx="4.32" r="1.98" cy="54.72" />
     <circle id="connector10pin" fill="none" stroke="black" stroke-width="1.44" cx="25.92" r="1.98" cy="54.72" />
     <circle id="connector8pin" fill="none" stroke="black" stroke-width="1.44" cx="4.32" r="1.98" cy="61.92" />
     <circle id="connector9pin" fill="none" stroke="black" stroke-width="1.44" cx="25.92" r="1.98" cy="61.92" />
    </g>
   </g>
  </g>
 </g>
 <g partID="854113400">
  <g transform="translate(48.104,56.3)">
   <g transform="matrix(0,-1,1,0,0,0)">
    <g id="copper0" >
     <g id="copper1" >
      <!-- <rect width="55" x="10" y="15.5" fill="none" height="55" stroke="rgb(255, 191, 0)" stroke-width="20" />  -->
      <circle id="connector0pin" fill="none" stroke="black" stroke-width="1.44" cx="2.7" r="1.98" cy="3.096" />
      <circle id="connector1pin" fill="none" stroke="black" stroke-width="1.44" cx="31.5" r="1.98" cy="3.096" />
     </g>
    </g>
   </g>
  </g>
 </g>
 <g partID="854113040">
  <g transform="translate(12.104,77.9)">
   <g transform="matrix(0,-1,1,0,0,0)">
    <g id="copper0" >
     <g id="copper1" >
      <!-- <rect width="55" x="10" y="15.5" fill="none" height="55" stroke="rgb(255, 191, 0)" stroke-width="20" />  -->
      <circle id="connector0pin" fill="none" stroke="black" stroke-width="1.44" cx="2.7" r="1.98" cy="3.096" />
      <circle id="connector1pin" fill="none" stroke="black" stroke-width="1.44" cx="31.5" r="1.98" cy="3.096" />
     </g>
    </g>
   </g>
  </g>
 </g>
 <g partID="854112340">
  <g transform="translate(55.304,56.3)">
   <g transform="matrix(0,-1,1,0,0,0)">
    <g id="copper0" >
     <g id="copper1" >
      <!-- <rect width="55" x="10" y="15.5" fill="none" height="55" stroke="rgb(255, 191, 0)" stroke-width="20" />  -->
      <circle id="connector0pin" fill="none" stroke="black" stroke-width="1.44" cx="2.7" r="1.98" cy="3.096" />
      <circle id="connector1pin" fill="none" stroke="black" stroke-width="1.44" cx="31.5" r="1.98" cy="3.096" />
     </g>
    </g>
   </g>
  </g>
 </g>
 <g partID="854111880">
  <g transform="translate(19.304,77.9)">
   <g transform="matrix(0,-1,1,0,0,0)">
    <g id="copper0" >
     <g id="copper1" >
      <!-- <rect width="55" x="10" y="15.5" fill="none" height="55" stroke="rgb(255, 191, 0)" stroke-width="20" />  -->
      <circle id="connector0pin" fill="none" stroke="black" stroke-width="1.44" cx="2.7" r="1.98" cy="3.096" />
      <circle id="connector1pin" fill="none" stroke="black" stroke-width="1.44" cx="31.5" r="1.98" cy="3.096" />
     </g>
    </g>
   </g>
  </g>
 </g>
 <g partID="854128400">
  <g transform="translate(51.9654,121.995)">
   <g transform="matrix(0,1,-1,0,0,0)">
    <g id="copper0" >
     <circle connectorname="2" id="connector1pad" stroke="black" stroke-width="1.25575" fill="none" cx="18.0045" r="2.61213" cy="35.0079" />
     <circle connectorname="1" id="connector0pad" stroke="black" stroke-width="1.25575" fill="none" cx="18.0045" r="2.61213" cy="15.1654" />
    </g>
   </g>
  </g>
 </g>
 <g partID="854204280">
  <g transform="translate(5.98403,118.976)">
   <g transform="matrix(0,-1,1,0,0,0)">
    <g id="copper0" >
     <circle connectorname="IN" id="connector1pad" stroke="black" stroke-width="0.72" fill="none" cx="7.776" r="1.8" cy="52.416" />
     <path stroke="none" stroke-width="0" fill="black"  d="m7.776,48.096a2.16,2.16,0,0,1,2.16,2.16l0,4.32a2.16,2.16,0,0,1,-2.16,2.16l0,0a2.16,2.16,0,0,1,-2.16,-2.16l0,-4.32a2.16,2.16,0,0,1,2.16,-2.16l0,0zM6.336,52.416a1.44,1.44,0,1,0,2.88,0,1.44,1.44,0,1,0,-2.88,0z"/>
     <circle connectorname="GND" id="connector0pad" stroke="black" stroke-width="0.72" fill="none" cx="14.976" r="1.8" cy="52.416" />
     <path stroke="none" stroke-width="0" fill="black"  d="m14.976,48.096a2.16,2.16,0,0,1,2.16,2.16l0,4.32a2.16,2.16,0,0,1,-2.16,2.16l0,0a2.16,2.16,0,0,1,-2.16,-2.16l0,-4.32a2.16,2.16,0,0,1,2.16,-2.16l0,0zM13.536,52.416a1.44,1.44,0,1,0,2.88,0,1.44,1.44,0,1,0,-2.88,0z"/>
     <circle connectorname="OUT" id="connector2pad" stroke="black" stroke-width="0.72" fill="none" cx="22.176" r="1.8" cy="52.416" />
     <path stroke="none" stroke-width="0" fill="black"  d="m22.176,48.096a2.16,2.16,0,0,1,2.16,2.16l0,4.32a2.16,2.16,0,0,1,-2.16,2.16l0,0a2.16,2.16,0,0,1,-2.16,-2.16l0,-4.32a2.16,2.16,0,0,1,2.16,-2.16l0,0zM20.736,52.416a1.44,1.44,0,1,0,2.88,0,1.44,1.44,0,1,0,-2.88,0z"/>
     <circle id="nonconn1" stroke="black" stroke-width="0" fill="black" cx="14.976" r="4.68" cy="9.936" />
    </g>
   </g>
  </g>
 </g>
 <g partID="854317630">
  <g transform="translate(126.084,20.4844)">
   <g id="copper0" >
    <circle id="connector0pin" fill="none" stroke-width="1.44" stroke="black" cx="4.31559" r="1.99559" cy="4.31559" />
   </g>
  </g>
 </g>
 <g partID="854317660">
  <g transform="translate(133.284,27.6844)">
   <g id="copper0" >
    <circle id="connector0pin" fill="none" stroke-width="1.44" stroke="black" cx="4.31559" r="1.99559" cy="4.31559" />
   </g>
  </g>
 </g>
 <g partID="854317830">
  <g transform="translate(25.2844,70.8844)">
   <g id="copper0" >
    <circle id="connector0pin" fill="none" stroke-width="1.44" stroke="black" cx="4.31559" r="1.99559" cy="4.31559" />
   </g>
  </g>
 </g>
 <g partID="854318410">
  <g transform="translate(46.8844,56.4844)">
   <g id="copper0" >
    <circle id="connector0pin" fill="none" stroke-width="1.44" stroke="black" cx="4.31559" r="1.99559" cy="4.31559" />
   </g>
  </g>
 </g>
 <g partID="854319000">
  <g transform="translate(68.4844,99.6844)">
   <g id="copper0" >
    <circle id="connector0pin" fill="none" stroke-width="1.44" stroke="black" cx="4.31559" r="1.99559" cy="4.31559" />
   </g>
  </g>
 </g>
 <g partID="854319100">
  <g transform="translate(3.6844,78.0844)">
   <g id="copper0" >
    <circle id="connector0pin" fill="none" stroke-width="1.44" stroke="black" cx="4.31559" r="1.99559" cy="4.31559" />
   </g>
  </g>
 </g>
 <g partID="854319700">
  <line stroke="black" stroke-width="1.728" stroke-linecap="round" y1="102.146" y2="89.6414" x1="71.8668" x2="65.5724"/>
 </g>
 <g partID="854320050">
  <line stroke="black" stroke-width="1.728" stroke-linecap="round" y1="89.6414" y2="82.659" x1="65.5724" x2="10.0594"/>
 </g>
 <g partID="854319950">
  <line stroke="black" stroke-width="1.728" stroke-linecap="round" y1="32.0882" y2="60.7862" x1="72.8176" x2="65.5724"/>
 </g>
 <g partID="854320250">
  <line stroke="black" stroke-width="1.728" stroke-linecap="round" y1="60.7862" y2="60.798" x1="65.5724" x2="53.2756"/>
 </g>
 <g partID="854320000">
  <line stroke="black" stroke-width="1.728" stroke-linecap="round" y1="32.0882" y2="32.0882" x1="130.494" x2="72.8176"/>
 </g>
 <g partID="854319900">
  <line stroke="black" stroke-width="1.728" stroke-linecap="round" y1="32.0257" y2="32.0882" x1="135.525" x2="130.494"/>
 </g>
 <g partID="854319800">
  <line stroke="black" stroke-width="1.728" stroke-linecap="round" y1="68" y2="74.9426" x1="87.2138" x2="31.6596"/>
 </g>
 <g partID="854319850">
  <line stroke="black" stroke-width="1.728" stroke-linecap="round" y1="39.2706" y2="68" x1="101.547" x2="87.2138"/>
 </g>
 <g partID="854324960">
  <line stroke="black" stroke-width="1.728" stroke-linecap="round" y1="39.2706" y2="39.2706" x1="137.677" x2="101.547"/>
 </g>
 <g partID="854324910">
  <line stroke="black" stroke-width="1.728" stroke-linecap="round" y1="32.0882" y2="39.2705" x1="144.859" x2="137.677"/>
 </g>
 <g partID="854319750">
  <line stroke="black" stroke-width="1.728" stroke-linecap="round" y1="25.7342" y2="32.0882" x1="132.253" x2="144.859"/>
 </g>
</svg>
