<?xml version='1.0' encoding='UTF-8' standalone='no'?>
<!-- Created with Fritzing (http://www.fritzing.org/) -->
<svg xmlns="http://www.w3.org/2000/svg" xmlns:svg="http://www.w3.org/2000/svg" version="1.2"  baseProfile="tiny" x="0in" y="0in" viewBox="0 0 197.345 157.491" width="2.7409in" height="2.18737in">
 <g partID="854136212">
  <g transform="translate(144.8,104)">
   <g transform="matrix(-1,0,0,-1,0,0)">
    <g gorn="0.3.0.0" id="copper1">
     <path gorn="0.3.0.0.0" stroke-opacity="1" d="m9,7.2a1.8,1.8,0,0,1,-3.6,0,1.8,1.8,0,1,1,3.6,0z" fill="white" stroke="white" stroke-width="2.16" style="stroke-linecap:round;stroke-linejoin:round;stroke-miterlimit:4;stroke-dasharray:none;stroke-dashoffset:0;display:inline" id="path15"/>
     <path gorn="0.3.0.0.1" stroke-opacity="1" d="m16.2,7.2a1.8,1.8,0,0,1,-3.6,0,1.8,1.8,0,1,1,3.6,0z" fill="white" stroke="white" stroke-width="2.16" style="stroke-linecap:round;stroke-linejoin:round;stroke-miterlimit:4;stroke-dasharray:none;stroke-dashoffset:0;display:inline" id="path17"/>
     <path gorn="0.3.0.0.2" stroke-opacity="1" d="m23.4,7.2a1.8,1.8,0,0,1,-3.6,0,1.8,1.8,0,1,1,3.6,0z" fill="white" stroke="white" stroke-width="2.16" style="stroke-linecap:round;stroke-linejoin:round;stroke-miterlimit:4;stroke-dasharray:none;stroke-dashoffset:0;display:inline" id="path19"/>
     <path gorn="0.3.0.0.3" stroke-opacity="1" d="m30.6,7.2a1.8,1.8,0,0,1,-3.6,0,1.8,1.8,0,1,1,3.6,0z" fill="white" stroke="white" stroke-width="2.16" style="stroke-linecap:round;stroke-linejoin:round;stroke-miterlimit:4;stroke-dasharray:none;stroke-dashoffset:0;display:inline" id="path21"/>
     <path gorn="0.3.0.0.4" stroke-opacity="1" d="m37.8,7.2a1.8,1.8,0,0,1,-3.6,0,1.8,1.8,0,1,1,3.6,0z" fill="white" stroke="white" stroke-width="2.16" style="stroke-linecap:round;stroke-linejoin:round;stroke-miterlimit:4;stroke-dasharray:none;stroke-dashoffset:0;display:inline" id="path23"/>
     <path gorn="0.3.0.0.5" stroke-opacity="1" d="m9,7.2a1.8,1.8,0,0,1,-3.6,0,1.8,1.8,0,1,1,3.6,0z" fill="white" stroke="white" stroke-width="2.16" style="stroke-linecap:round;stroke-linejoin:round;stroke-miterlimit:4;stroke-dasharray:none;stroke-dashoffset:0;display:inline" id="connector1pad"/>
     <path gorn="0.3.0.0.6" stroke-opacity="1" d="m16.2,7.2a1.8,1.8,0,0,1,-3.6,0,1.8,1.8,0,1,1,3.6,0z" fill="white" stroke="white" stroke-width="2.16" style="stroke-linecap:round;stroke-linejoin:round;stroke-miterlimit:4;stroke-dasharray:none;stroke-dashoffset:0;display:inline" id="connector2pad"/>
     <path gorn="0.3.0.0.7" stroke-opacity="1" d="m23.4,7.2a1.8,1.8,0,0,1,-3.6,0,1.8,1.8,0,1,1,3.6,0z" fill="white" stroke="white" stroke-width="2.16" style="stroke-linecap:round;stroke-linejoin:round;stroke-miterlimit:4;stroke-dasharray:none;stroke-dashoffset:0;display:inline" id="connector3pad"/>
     <path gorn="0.3.0.0.8" stroke-opacity="1" d="m30.6,7.2a1.8,1.8,0,0,1,-3.6,0,1.8,1.8,0,1,1,3.6,0z" fill="white" stroke="white" stroke-width="2.16" style="stroke-linecap:round;stroke-linejoin:round;stroke-miterlimit:4;stroke-dasharray:none;stroke-dashoffset:0;display:inline" id="connector4pad"/>
     <path gorn="0.3.0.0.9" stroke-opacity="1" d="m37.8,7.2a1.8,1.8,0,0,1,-3.6,0,1.8,1.8,0,1,1,3.6,0z" fill="white" stroke="white" stroke-width="2.16" style="stroke-linecap:round;stroke-linejoin:round;stroke-miterlimit:4;stroke-dasharray:none;stroke-dashoffset:0;display:inline" id="connector5pad"/>
    </g>
   </g>
  </g>
 </g>
 <g partID="854137262">
  <g transform="translate(144.8,89.6)">
   <g gorn="0.3.0.0" id="copper1">
    <path gorn="0.3.0.0.0" stroke-opacity="1" d="m9,7.2a1.8,1.8,0,0,1,-3.6,0,1.8,1.8,0,1,1,3.6,0z" fill="white" stroke="white" stroke-width="2.16" style="stroke-linecap:round;stroke-linejoin:round;stroke-miterlimit:4;stroke-dasharray:none;stroke-dashoffset:0;display:inline" id="path15"/>
    <path gorn="0.3.0.0.1" stroke-opacity="1" d="m16.2,7.2a1.8,1.8,0,0,1,-3.6,0,1.8,1.8,0,1,1,3.6,0z" fill="white" stroke="white" stroke-width="2.16" style="stroke-linecap:round;stroke-linejoin:round;stroke-miterlimit:4;stroke-dasharray:none;stroke-dashoffset:0;display:inline" id="path17"/>
    <path gorn="0.3.0.0.2" stroke-opacity="1" d="m23.4,7.2a1.8,1.8,0,0,1,-3.6,0,1.8,1.8,0,1,1,3.6,0z" fill="white" stroke="white" stroke-width="2.16" style="stroke-linecap:round;stroke-linejoin:round;stroke-miterlimit:4;stroke-dasharray:none;stroke-dashoffset:0;display:inline" id="path19"/>
    <path gorn="0.3.0.0.3" stroke-opacity="1" d="m30.6,7.2a1.8,1.8,0,0,1,-3.6,0,1.8,1.8,0,1,1,3.6,0z" fill="white" stroke="white" stroke-width="2.16" style="stroke-linecap:round;stroke-linejoin:round;stroke-miterlimit:4;stroke-dasharray:none;stroke-dashoffset:0;display:inline" id="path21"/>
    <path gorn="0.3.0.0.4" stroke-opacity="1" d="m37.8,7.2a1.8,1.8,0,0,1,-3.6,0,1.8,1.8,0,1,1,3.6,0z" fill="white" stroke="white" stroke-width="2.16" style="stroke-linecap:round;stroke-linejoin:round;stroke-miterlimit:4;stroke-dasharray:none;stroke-dashoffset:0;display:inline" id="path23"/>
    <path gorn="0.3.0.0.5" stroke-opacity="1" d="m9,7.2a1.8,1.8,0,0,1,-3.6,0,1.8,1.8,0,1,1,3.6,0z" fill="white" stroke="white" stroke-width="2.16" style="stroke-linecap:round;stroke-linejoin:round;stroke-miterlimit:4;stroke-dasharray:none;stroke-dashoffset:0;display:inline" id="connector1pad"/>
    <path gorn="0.3.0.0.6" stroke-opacity="1" d="m16.2,7.2a1.8,1.8,0,0,1,-3.6,0,1.8,1.8,0,1,1,3.6,0z" fill="white" stroke="white" stroke-width="2.16" style="stroke-linecap:round;stroke-linejoin:round;stroke-miterlimit:4;stroke-dasharray:none;stroke-dashoffset:0;display:inline" id="connector2pad"/>
    <path gorn="0.3.0.0.7" stroke-opacity="1" d="m23.4,7.2a1.8,1.8,0,0,1,-3.6,0,1.8,1.8,0,1,1,3.6,0z" fill="white" stroke="white" stroke-width="2.16" style="stroke-linecap:round;stroke-linejoin:round;stroke-miterlimit:4;stroke-dasharray:none;stroke-dashoffset:0;display:inline" id="connector3pad"/>
    <path gorn="0.3.0.0.8" stroke-opacity="1" d="m30.6,7.2a1.8,1.8,0,0,1,-3.6,0,1.8,1.8,0,1,1,3.6,0z" fill="white" stroke="white" stroke-width="2.16" style="stroke-linecap:round;stroke-linejoin:round;stroke-miterlimit:4;stroke-dasharray:none;stroke-dashoffset:0;display:inline" id="connector4pad"/>
    <path gorn="0.3.0.0.9" stroke-opacity="1" d="m37.8,7.2a1.8,1.8,0,0,1,-3.6,0,1.8,1.8,0,1,1,3.6,0z" fill="white" stroke="white" stroke-width="2.16" style="stroke-linecap:round;stroke-linejoin:round;stroke-miterlimit:4;stroke-dasharray:none;stroke-dashoffset:0;display:inline" id="connector5pad"/>
   </g>
  </g>
 </g>
 <g partID="57852">
  <g transform="translate(0.6148,3.2)">
   <g id="copper1">
    <g id="copper0">
     <circle r="1.883" fill="white" stroke="white" stroke-width="1.72" id="connector1pad" cx="151.384" cy="144"/>
     <circle r="1.883" fill="white" stroke="white" stroke-width="1.72" id="connector2pad" cx="158.583" cy="144"/>
     <circle r="1.883" fill="white" stroke="white" stroke-width="1.72" id="connector3pad" cx="165.786" cy="144"/>
     <circle r="1.883" fill="white" stroke="white" stroke-width="1.72" id="connector4pad" cx="172.985" cy="144"/>
     <circle r="1.883" fill="white" stroke="white" stroke-width="1.72" id="connector5pad" cx="180.185" cy="144"/>
     <circle r="1.884" fill="white" stroke="white" stroke-width="1.72" id="connector51pad" cx="118.263" cy="7.2"/>
     <circle r="1.884" fill="white" stroke="white" stroke-width="1.72" id="connector52pad" cx="111.065" cy="7.2"/>
     <circle r="1.884" fill="white" stroke="white" stroke-width="1.72" id="connector53pad" cx="103.864" cy="7.2"/>
     <circle r="1.884" fill="white" stroke="white" stroke-width="1.72" id="connector54pad" cx="96.664" cy="7.2"/>
     <circle r="1.884" fill="white" stroke="white" stroke-width="1.72" id="connector55pad" cx="89.464" cy="7.2"/>
     <circle r="1.884" fill="white" stroke="white" stroke-width="1.72" id="connector56pad" cx="82.264" cy="7.2"/>
     <circle r="1.884" fill="white" stroke="white" stroke-width="1.72" id="connector57pad" cx="75.064" cy="7.2"/>
     <circle r="1.884" fill="white" stroke="white" stroke-width="1.72" id="connector58pad" cx="67.864" cy="7.2"/>
     <circle r="1.884" fill="white" stroke="white" stroke-width="1.72" id="connector59pad" cx="60.664" cy="7.2"/>
     <circle r="1.884" fill="white" stroke="white" stroke-width="1.72" id="connector60pad" cx="53.463" cy="7.2"/>
     <circle r="1.884" fill="white" stroke="white" stroke-width="1.72" id="connector61pad" cx="180.185" cy="7.2"/>
     <circle r="1.884" fill="white" stroke="white" stroke-width="1.72" id="connector62pad" cx="172.985" cy="7.2"/>
     <circle r="1.884" fill="white" stroke="white" stroke-width="1.72" id="connector63pad" cx="165.786" cy="7.2"/>
     <circle r="1.884" fill="white" stroke="white" stroke-width="1.72" id="connector64pad" cx="158.583" cy="7.2"/>
     <circle r="1.884" fill="white" stroke="white" stroke-width="1.72" id="connector65pad" cx="151.384" cy="7.2"/>
     <circle r="1.884" fill="white" stroke="white" stroke-width="1.72" id="connector66pad" cx="144.185" cy="7.2"/>
     <circle r="1.884" fill="white" stroke="white" stroke-width="1.72" id="connector67pad" cx="136.985" cy="7.2"/>
     <circle r="1.884" fill="white" stroke="white" stroke-width="1.72" id="connector68pad" cx="129.784" cy="7.2"/>
     <circle r="1.883" fill="white" stroke="white" stroke-width="1.72" id="connector84pad" cx="86.584" cy="144"/>
     <circle r="1.883" fill="white" stroke="white" stroke-width="1.72" id="connector91pin" cx="79.384" cy="144"/>
     <circle r="1.883" fill="white" stroke="white" stroke-width="1.72" id="connector85pad" cx="93.784" cy="144"/>
     <circle r="1.883" fill="white" stroke="white" stroke-width="1.72" id="connector86pad" cx="100.985" cy="144"/>
     <circle r="1.883" fill="white" stroke="white" stroke-width="1.72" id="connector87pad" cx="108.185" cy="144"/>
     <circle r="1.883" fill="white" stroke="white" stroke-width="1.72" id="connector88pad" cx="115.384" cy="144"/>
     <circle r="1.883" fill="white" stroke="white" stroke-width="1.72" id="connector89pad" cx="122.583" cy="144"/>
     <circle r="1.883" fill="white" stroke="white" stroke-width="1.72" id="connector90pad" cx="129.784" cy="144"/>
     <circle r="1.883" fill="white" stroke="white" stroke-width="1.72" id="connector0pad" cx="144.185" cy="144"/>
    </g>
   </g>
  </g>
 </g>
 <g partID="58062">
  <g transform="translate(63.44,134.96)">
   <g transform="matrix(0,1,-1,0,0,0)">
    <g id="copper1">
     <g id="copper0">
      <rect fill="white" x="2.952" stroke="white" stroke-width="2.16" y="2.952" id="square" height="4.176" width="4.176"/>
      <circle r="2.088" fill="white" stroke="white" stroke-width="2.16" id="connector0pin" cx="5.04" cy="5.04"/>
      <circle r="2.088" fill="white" stroke="white" stroke-width="2.16" id="connector1pin" cx="5.04" cy="12.24"/>
     </g>
    </g>
   </g>
  </g>
 </g>
 <g partID="854100552">
  <g transform="translate(85.04,73.04)">
   <g transform="matrix(-1,0,0,-1,0,0)">
    <g id="copper1">
     <g id="copper0">
      <rect fill="white" x="2.952" stroke="white" stroke-width="2.16" y="2.952" id="square" height="4.176" width="4.176"/>
      <circle r="2.088" fill="white" stroke="white" stroke-width="2.16" id="connector0pin" cx="5.04" cy="5.04"/>
      <circle r="2.088" fill="white" stroke="white" stroke-width="2.16" id="connector1pin" cx="5.04" cy="12.24"/>
      <circle r="2.088" fill="white" stroke="white" stroke-width="2.16" id="connector2pin" cx="5.04" cy="19.44"/>
     </g>
    </g>
   </g>
  </g>
 </g>
 <g partID="854102752">
  <g transform="translate(40.7128,35.888)">
   <g transform="matrix(-1,0,0,-1,0,0)">
    <g gorn="0.2" id="copper1">
     <rect fill="white" x="1.84772" y="1.836" stroke="white" stroke-width="1.95181" width="4.13019" height="4.104"/>
     <circle gorn="0.2.1" r="2.0651" fill="white" stroke="white" stroke-width="1.95181" id="connector0pad" cx="3.91281" cy="3.888" connectorname="1"/>
     <circle gorn="0.2.2" r="2.0651" fill="white" stroke="white" stroke-width="1.95181" id="connector1pad" cx="3.91281" cy="11.088" connectorname="2"/>
     <circle gorn="0.2.3" r="2.0651" fill="white" stroke="white" stroke-width="1.95181" id="connector2pad" cx="11.1588" cy="3.888" connectorname="3"/>
     <circle gorn="0.2.4" r="2.0651" fill="white" stroke="white" stroke-width="1.95181" id="connector3pad" cx="11.1588" cy="11.088" connectorname="4"/>
     <circle gorn="0.2.5" r="2.0651" fill="white" stroke="white" stroke-width="1.95181" id="connector4pad" cx="18.4047" cy="3.888" connectorname="5"/>
     <circle gorn="0.2.6" r="2.0651" fill="white" stroke="white" stroke-width="1.95181" id="connector5pad" cx="18.4047" cy="11.088" connectorname="6"/>
     <circle gorn="0.2.7" r="2.0651" fill="white" stroke="white" stroke-width="1.95181" id="connector6pad" cx="25.6507" cy="3.888" connectorname="7"/>
     <circle gorn="0.2.8" r="2.0651" fill="white" stroke="white" stroke-width="1.95181" id="connector7pad" cx="25.6507" cy="11.088" connectorname="8"/>
     <g gorn="0.2.9" id="copper0">
      <rect fill="white" x="1.84772" y="1.836" stroke="white" stroke-width="1.95181" width="4.13019" height="4.104"/>
      <circle gorn="0.2.9.1" r="2.0651" fill="white" stroke="white" stroke-width="1.95181" id="connector6pin" cx="3.91281" cy="3.888" connectorname="1"/>
      <circle gorn="0.2.9.2" r="2.0651" fill="white" stroke="white" stroke-width="1.95181" id="connector7pin" cx="3.91281" cy="11.088" connectorname="2"/>
      <circle gorn="0.2.9.3" r="2.0651" fill="white" stroke="white" stroke-width="1.95181" id="connector4pin" cx="11.1588" cy="3.888" connectorname="3"/>
      <circle gorn="0.2.9.4" r="2.0651" fill="white" stroke="white" stroke-width="1.95181" id="connector5pin" cx="11.1588" cy="11.088" connectorname="4"/>
      <circle gorn="0.2.9.5" r="2.0651" fill="white" stroke="white" stroke-width="1.95181" id="connector2pin" cx="18.4047" cy="3.888" connectorname="5"/>
      <circle gorn="0.2.9.6" r="2.0651" fill="white" stroke="white" stroke-width="1.95181" id="connector3pin" cx="18.4047" cy="11.088" connectorname="6"/>
      <rect fill="white" x="23.5856" y="1.836" stroke="white" stroke-width="1.95181" width="4.13019" height="4.104"/>
      <circle gorn="0.2.9.8" r="2.0651" fill="white" stroke="white" stroke-width="1.95181" id="connector0pin" cx="25.6507" cy="3.888" connectorname="7"/>
      <circle gorn="0.2.9.9" r="2.0651" fill="white" stroke="white" stroke-width="1.95181" id="connector1pin" cx="25.6507" cy="11.088" connectorname="8"/>
     </g>
    </g>
   </g>
  </g>
 </g>
 <g partID="854104892">
  <g transform="translate(170.72,49.28)">
   <g transform="matrix(0,1,-1,0,0,0)">
    <g id="copper1">
     <g id="copper0">
      <rect fill="white" x="2.34" stroke="white" stroke-width="2.16" y="2.34" id="square" height="3.96" width="3.96"/>
      <circle r="1.98" fill="white" stroke="white" stroke-width="2.16" id="connector0pin" cx="4.32" cy="4.32"/>
      <circle r="1.98" fill="white" stroke="white" stroke-width="2.16" id="connector17pin" cx="25.92" cy="4.32"/>
      <circle r="1.98" fill="white" stroke="white" stroke-width="2.16" id="connector1pin" cx="4.32" cy="11.52"/>
      <circle r="1.98" fill="white" stroke="white" stroke-width="2.16" id="connector16pin" cx="25.92" cy="11.52"/>
      <circle r="1.98" fill="white" stroke="white" stroke-width="2.16" id="connector2pin" cx="4.32" cy="18.72"/>
      <circle r="1.98" fill="white" stroke="white" stroke-width="2.16" id="connector15pin" cx="25.92" cy="18.72"/>
      <circle r="1.98" fill="white" stroke="white" stroke-width="2.16" id="connector3pin" cx="4.32" cy="25.92"/>
      <circle r="1.98" fill="white" stroke="white" stroke-width="2.16" id="connector14pin" cx="25.92" cy="25.92"/>
      <circle r="1.98" fill="white" stroke="white" stroke-width="2.16" id="connector4pin" cx="4.32" cy="33.12"/>
      <circle r="1.98" fill="white" stroke="white" stroke-width="2.16" id="connector13pin" cx="25.92" cy="33.12"/>
      <circle r="1.98" fill="white" stroke="white" stroke-width="2.16" id="connector5pin" cx="4.32" cy="40.32"/>
      <circle r="1.98" fill="white" stroke="white" stroke-width="2.16" id="connector12pin" cx="25.92" cy="40.32"/>
      <circle r="1.98" fill="white" stroke="white" stroke-width="2.16" id="connector6pin" cx="4.32" cy="47.52"/>
      <circle r="1.98" fill="white" stroke="white" stroke-width="2.16" id="connector11pin" cx="25.92" cy="47.52"/>
      <circle r="1.98" fill="white" stroke="white" stroke-width="2.16" id="connector7pin" cx="4.32" cy="54.72"/>
      <circle r="1.98" fill="white" stroke="white" stroke-width="2.16" id="connector10pin" cx="25.92" cy="54.72"/>
      <circle r="1.98" fill="white" stroke="white" stroke-width="2.16" id="connector8pin" cx="4.32" cy="61.92"/>
      <circle r="1.98" fill="white" stroke="white" stroke-width="2.16" id="connector9pin" cx="25.92" cy="61.92"/>
     </g>
    </g>
   </g>
  </g>
 </g>
 <g partID="854113402">
  <g transform="translate(48.104,56.3)">
   <g transform="matrix(0,-1,1,0,0,0)">
    <g id="copper1">
     <!-- <rect width="55" x="10" y="15.5" fill="none" height="55" stroke="rgb(255, 191, 0)" stroke-width="20" />  -->
     <circle r="1.98" fill="white" stroke="white" stroke-width="2.16" id="connector0pin" cx="2.7" cy="3.096"/>
     <circle r="1.98" fill="white" stroke="white" stroke-width="2.16" id="connector1pin" cx="31.5" cy="3.096"/>
    </g>
   </g>
  </g>
 </g>
 <g partID="854113042">
  <g transform="translate(12.104,77.9)">
   <g transform="matrix(0,-1,1,0,0,0)">
    <g id="copper1">
     <!-- <rect width="55" x="10" y="15.5" fill="none" height="55" stroke="rgb(255, 191, 0)" stroke-width="20" />  -->
     <circle r="1.98" fill="white" stroke="white" stroke-width="2.16" id="connector0pin" cx="2.7" cy="3.096"/>
     <circle r="1.98" fill="white" stroke="white" stroke-width="2.16" id="connector1pin" cx="31.5" cy="3.096"/>
    </g>
   </g>
  </g>
 </g>
 <g partID="854112342">
  <g transform="translate(55.304,56.3)">
   <g transform="matrix(0,-1,1,0,0,0)">
    <g id="copper1">
     <!-- <rect width="55" x="10" y="15.5" fill="none" height="55" stroke="rgb(255, 191, 0)" stroke-width="20" />  -->
     <circle r="1.98" fill="white" stroke="white" stroke-width="2.16" id="connector0pin" cx="2.7" cy="3.096"/>
     <circle r="1.98" fill="white" stroke="white" stroke-width="2.16" id="connector1pin" cx="31.5" cy="3.096"/>
    </g>
   </g>
  </g>
 </g>
 <g partID="854111882">
  <g transform="translate(19.304,77.9)">
   <g transform="matrix(0,-1,1,0,0,0)">
    <g id="copper1">
     <!-- <rect width="55" x="10" y="15.5" fill="none" height="55" stroke="rgb(255, 191, 0)" stroke-width="20" />  -->
     <circle r="1.98" fill="white" stroke="white" stroke-width="2.16" id="connector0pin" cx="2.7" cy="3.096"/>
     <circle r="1.98" fill="white" stroke="white" stroke-width="2.16" id="connector1pin" cx="31.5" cy="3.096"/>
    </g>
   </g>
  </g>
 </g>
 <g partID="854128402">
  <g transform="translate(51.9654,121.995)">
   <g transform="matrix(0,1,-1,0,0,0)">
    <g id="copper1">
     <circle r="2.61213" fill="white" stroke="white" stroke-width="1.97575" id="connector1pad" cx="18.0045" connectorname="2" cy="35.0079"/>
     <circle r="2.61213" fill="white" stroke="white" stroke-width="1.97575" id="connector0pad" cx="18.0045" connectorname="1" cy="15.1654"/>
     <g id="copper0">
      <circle r="2.61213" fill="white" stroke="white" stroke-width="1.97575" id="connector1pad" cx="18.0045" connectorname="2" cy="35.0079"/>
      <circle r="2.61213" fill="white" stroke="white" stroke-width="1.97575" id="connector0pad" cx="18.0045" connectorname="1" cy="15.1654"/>
     </g>
    </g>
   </g>
  </g>
 </g>
 <g partID="854317631">
  <g transform="translate(126.084,20.4844)">
   <g id="copper1">
    <circle r="1.99559" fill="white" stroke-width="2.16" stroke="white" id="connector0pin" cx="4.31559" cy="4.31559"/>
   </g>
  </g>
 </g>
 <g partID="854317661">
  <g transform="translate(133.284,27.6844)">
   <g id="copper1">
    <circle r="1.99559" fill="white" stroke-width="2.16" stroke="white" id="connector0pin" cx="4.31559" cy="4.31559"/>
   </g>
  </g>
 </g>
 <g partID="854317831">
  <g transform="translate(25.2844,70.8844)">
   <g id="copper1">
    <circle r="1.99559" fill="white" stroke-width="2.16" stroke="white" id="connector0pin" cx="4.31559" cy="4.31559"/>
   </g>
  </g>
 </g>
 <g partID="854318411">
  <g transform="translate(46.8844,56.4844)">
   <g id="copper1">
    <circle r="1.99559" fill="white" stroke-width="2.16" stroke="white" id="connector0pin" cx="4.31559" cy="4.31559"/>
   </g>
  </g>
 </g>
 <g partID="854386621">
  <g transform="translate(32.4844,42.0844)">
   <g id="copper1">
    <circle r="1.99559" fill="white" stroke-width="2.16" stroke="white" id="connector0pin" cx="4.31559" cy="4.31559"/>
   </g>
  </g>
 </g>
 <g partID="854385761">
  <g transform="translate(75.6844,99.6844)">
   <g id="copper1">
    <circle r="1.99559" fill="white" stroke-width="2.16" stroke="white" id="connector0pin" cx="4.31559" cy="4.31559"/>
   </g>
  </g>
 </g>
 <g partID="854385241">
  <g transform="translate(18.0844,99.6844)">
   <g id="copper1">
    <circle r="1.99559" fill="white" stroke-width="2.16" stroke="white" id="connector0pin" cx="4.31559" cy="4.31559"/>
   </g>
  </g>
 </g>
 <g partID="854385131">
  <g transform="translate(3.68441,99.6844)">
   <g id="copper1">
    <circle r="1.99559" fill="white" stroke-width="2.16" stroke="white" id="connector0pin" cx="4.31559" cy="4.31559"/>
   </g>
  </g>
 </g>
 <g partID="854319001">
  <g transform="translate(75.6844,106.884)">
   <g id="copper1">
    <circle r="1.99559" fill="white" stroke-width="2.16" stroke="white" id="connector0pin" cx="4.31559" cy="4.31559"/>
   </g>
  </g>
 </g>
 <g partID="854319101">
  <g transform="translate(3.68441,106.884)">
   <g id="copper1">
    <circle r="1.99559" fill="white" stroke-width="2.16" stroke="white" id="connector0pin" cx="4.31559" cy="4.31559"/>
   </g>
  </g>
 </g>
</svg>
